<svg width="120" height="120" viewBox="0 0 120 120" fill="none" xmlns="http://www.w3.org/2000/svg">
<circle cx="60" cy="60" r="60" fill="#B4C486"/>
<path d="M60.4615 26.8549L60.4832 26.8099L60.4615 26.8549L90.3013 41.178C90.5133 41.2797 90.6887 41.4443 90.8037 41.6493C90.9188 41.8543 90.9678 42.0898 90.9442 42.3237L87.3635 77.841C87.3475 77.9998 87.2984 78.1535 87.2194 78.2922C87.1404 78.4308 87.0333 78.5515 86.905 78.6463L60.6459 98.0341C60.4493 98.1794 60.2112 98.2577 59.9667 98.2577C59.7221 98.2577 59.4841 98.1794 59.2874 98.0341L33.0283 78.6463C32.9 78.5515 32.7929 78.4308 32.7139 78.2922C32.6349 78.1535 32.5859 77.9998 32.5698 77.841L28.9891 42.3237L28.9393 42.3287L28.9891 42.3237C28.9655 42.0898 29.0145 41.8543 29.1296 41.6493C29.2446 41.4443 29.4201 41.2797 29.632 41.178L29.6104 41.1329L29.632 41.178L43.91 34.3246L44.8998 36.3864L31.3768 42.8776L31.3452 42.8928L31.3487 42.9277L34.7924 77.0853L34.7946 77.1073L34.8125 77.1205L59.937 95.6707L59.9667 95.6926L59.9964 95.6707L85.1209 77.1204L85.1387 77.1073L85.1409 77.0852L88.5846 42.9276L88.5881 42.8927L88.5565 42.8775L59.9883 29.1648L59.9667 29.1544L59.945 29.1648L45.2103 36.2374L44.2206 34.1755L59.4718 26.8549L59.4501 26.8099L59.4718 26.8549C59.6262 26.7808 59.7953 26.7423 59.9667 26.7423C60.138 26.7423 60.3071 26.7808 60.4615 26.8549ZM45.1202 36.2806L44.9899 36.3432L44.0002 34.2813L44.1304 34.2188L45.1202 36.2806Z" fill="#647534" stroke="white" stroke-width="0.1"/>
<path d="M60.4616 32.1508L60.4833 32.1057L60.4616 32.1508L85.215 44.0325C85.4269 44.1342 85.6024 44.2988 85.7174 44.5038C85.8325 44.7088 85.8815 44.9443 85.8579 45.1782L82.8255 75.2569C82.8095 75.4157 82.7605 75.5693 82.6815 75.708C82.6025 75.8467 82.4954 75.9673 82.367 76.0621L75.1821 81.367L73.8235 79.5271L80.5829 74.5363L80.6007 74.5232L80.603 74.5011L83.4983 45.7821L83.5018 45.7472L83.4702 45.732L59.9884 34.4606L59.9667 34.4502L59.9451 34.4606L36.4633 45.732L36.4317 45.7472L36.4352 45.7821L39.3305 74.5011L39.3328 74.5232L39.3506 74.5363L59.937 89.736L59.9667 89.7579L59.9964 89.736L73.5703 79.714L74.9289 81.5539L60.646 92.0994L60.6757 92.1396L60.646 92.0994C60.4493 92.2446 60.2113 92.323 59.9667 92.323C59.7222 92.323 59.4841 92.2446 59.2875 92.0994L59.2578 92.1396L59.2875 92.0994L37.5665 76.0621C37.4381 75.9673 37.331 75.8467 37.252 75.708C37.173 75.5694 37.124 75.4157 37.108 75.2569L34.0755 45.1782C34.052 44.9443 34.101 44.7088 34.2161 44.5038C34.3311 44.2988 34.5065 44.1342 34.7185 44.0325L59.4719 32.1508L59.4502 32.1057L59.4719 32.1508C59.6263 32.0766 59.7954 32.0381 59.9667 32.0381C60.1381 32.0381 60.3072 32.0766 60.4616 32.1508ZM73.6508 79.6546L73.743 79.5864L75.1016 81.4264L75.0094 81.4945L73.6508 79.6546Z" fill="#647534" stroke="white" stroke-width="0.1"/>
<path d="M44.4 62.5C44.3915 65.387 45.1932 68.2185 46.714 70.6725L46.7473 70.7261L46.7919 70.6815L51.2097 66.2637L51.2335 66.2399L51.2204 66.2089C50.8798 65.4035 50.6518 64.555 50.5426 63.6874L50.5371 63.6436H50.493H49.2244H49.1744V63.6936C49.1744 64.3252 48.6624 64.8372 48.0308 64.8372C47.3992 64.8372 46.8872 64.3252 46.8872 63.6936V61.3064C46.8872 60.6749 47.3992 60.1628 48.0308 60.1628C48.6624 60.1628 49.1744 60.6749 49.1744 61.3064V61.3564H49.2244H50.4922H50.5363L50.5418 61.3127C50.754 59.6228 51.4187 58.0217 52.4658 56.6785L52.4929 56.6437L52.4617 56.6124L51.562 55.7127L51.5267 55.6774L51.4913 55.7127C51.0447 56.1593 50.3206 56.1593 49.874 55.7127C49.4274 55.266 49.4274 54.5419 49.874 54.0953L51.562 52.4074C52.0086 51.9608 52.7328 51.9609 53.1794 52.4075C53.6259 52.8541 53.6259 53.5782 53.1794 54.0247L53.144 54.0601L53.1794 54.0954L54.079 54.9951L54.1103 55.0263L54.1451 54.9992C55.4883 53.9521 57.0895 53.2873 58.7793 53.0752L58.8231 53.0697V53.0256V51.7577V51.7077H58.7731C58.1415 51.7077 57.6295 51.1957 57.6295 50.5641C57.6295 49.9325 58.1415 49.4205 58.7731 49.4205H61.1603C61.7919 49.4205 62.3039 49.9325 62.3039 50.5641C62.3039 51.1957 61.7919 51.7077 61.1603 51.7077H61.1103V51.7577V53.0263V53.0705L61.1541 53.0759C62.3215 53.2224 63.4514 53.5845 64.4865 54.144C64.643 54.2288 64.7775 54.349 64.8793 54.4949C64.9812 54.6409 65.0476 54.8087 65.0732 54.9848C65.0988 55.161 65.0829 55.3407 65.0268 55.5096C64.9707 55.6786 64.876 55.8321 64.7501 55.9579L53.4247 67.2832L53.4243 67.2836L53.4228 67.2851L53.4224 67.2855L47.3918 73.3161C47.1774 73.5305 46.8865 73.651 46.5833 73.651C46.5562 73.651 46.529 73.6501 46.5018 73.6481L46.5018 73.6481C46.3383 73.6364 46.1792 73.5897 46.0353 73.5112C45.8915 73.4327 45.7662 73.3242 45.6679 73.193C43.097 69.7544 41.8512 65.5046 42.1587 61.2222C42.4662 56.9399 44.3066 52.9117 47.3425 49.8758C50.3784 46.8399 54.4066 44.9996 58.6889 44.692C62.9713 44.3845 67.2211 45.6303 70.6597 48.2012C70.7909 48.2995 70.8994 48.4248 70.978 48.5687C71.0565 48.7125 71.1032 48.8716 71.1149 49.0351C71.1265 49.1986 71.1029 49.3627 71.0456 49.5163C70.9883 49.6699 70.8987 49.8094 70.7828 49.9253L67.5873 53.1207C67.1407 53.5673 66.4166 53.5673 65.97 53.1206C65.5234 52.674 65.5234 51.9499 65.97 51.5033L68.1482 49.3253L68.1928 49.2807L68.1392 49.2475C65.6852 47.7266 62.8537 46.9248 59.9666 46.9333M44.4 62.5C44.4047 58.3729 46.0462 54.4162 48.9645 51.4979C51.8828 48.5796 55.8395 46.938 59.9666 46.9333M44.4 62.5C44.4 62.5 44.4 62.5 44.4 62.5L44.45 62.5L44.4 62.4999C44.4 62.4999 44.4 62.4999 44.4 62.5ZM59.9666 46.9333C59.9666 46.9333 59.9666 46.9333 59.9665 46.9333L59.9667 46.9833L59.9666 46.9333C59.9666 46.9333 59.9666 46.9333 59.9666 46.9333ZM61.8561 55.6173L61.9174 55.556L61.8337 55.5336C60.7652 55.2477 59.6452 55.2114 58.5604 55.4273C57.4756 55.6433 56.455 56.1059 55.5774 56.7793C54.6999 57.4526 53.989 58.3188 53.4996 59.3107C53.0102 60.3027 52.7555 61.3939 52.7551 62.5C52.7553 63.1304 52.8377 63.758 53.0003 64.3669L53.0227 64.4507L53.084 64.3894L61.8561 55.6173Z" fill="#647534" stroke="white" stroke-width="0.1"/>
<path d="M66.5132 57.7123L66.5127 57.7128L66.5089 57.7164L66.5084 57.717L55.1839 69.0415L55.1832 69.0421L55.1809 69.0446L55.1802 69.0452L49.1507 75.0748L49.1153 75.0394L49.1507 75.0748C49.0348 75.1907 48.9451 75.3301 48.8878 75.4837C48.8305 75.6373 48.8069 75.8014 48.8186 75.9649C48.8303 76.1284 48.877 76.2875 48.9555 76.4314C49.034 76.5753 49.1426 76.7006 49.2738 76.7988L49.2739 76.7989C52.3558 79.1168 56.1103 80.365 59.9666 80.3539L59.9667 80.3539C60.4224 80.3539 60.8779 80.3367 61.332 80.3023C61.9586 80.2548 62.3939 79.6741 62.3043 79.0476C62.2151 78.4235 61.6357 77.991 61.0018 78.0327C60.6574 78.0554 60.3122 78.0667 59.9669 78.0667C59.9668 78.0667 59.9668 78.0667 59.9667 78.0667L59.9667 78.0167L66.5132 57.7123ZM66.5132 57.7123L72.5416 51.6839C72.6575 51.5681 72.7969 51.4784 72.9505 51.4212C73.1041 51.3639 73.2682 51.3403 73.4316 51.352C73.5951 51.3637 73.7542 51.4103 73.8981 51.4888C74.0419 51.5674 74.1672 51.6759 74.2655 51.807C76.583 54.9071 77.8307 58.6762 77.8205 62.5468C77.8104 66.4174 76.543 70.1799 74.2093 73.2678L66.5132 57.7123ZM58.0773 69.3828L58.016 69.444L58.0997 69.4664C59.1682 69.7523 60.2882 69.7887 61.373 69.5727C62.4578 69.3567 63.4784 68.8942 64.356 68.2208C65.2335 67.5474 65.9444 66.6813 66.4338 65.6893C66.9232 64.6974 67.1779 63.6062 67.1783 62.5C67.1781 61.8697 67.0956 61.2421 66.933 60.6331L66.9107 60.5494L66.8494 60.6107L58.0773 69.3828Z" fill="#647534" stroke="white" stroke-width="0.1"/>
<path d="M39.7255 48.1769C39.7255 47.5453 40.2375 47.0333 40.8691 47.0333C41.5007 47.0333 42.0127 47.5453 42.0127 48.1769C42.0127 48.8085 41.5007 49.3205 40.8691 49.3205C40.2375 49.3205 39.7255 48.8085 39.7255 48.1769Z" fill="#647534" stroke="white" stroke-width="0.1"/>
<path d="M77.9205 48.1769C77.9205 47.5453 78.4325 47.0333 79.0641 47.0333C79.6957 47.0333 80.2077 47.5453 80.2077 48.1769C80.2077 48.8085 79.6957 49.3205 79.0641 49.3205C78.4325 49.3205 77.9205 48.8085 77.9205 48.1769Z" fill="#647534" stroke="white" stroke-width="0.1"/>
<path d="M58.8231 39.8217C58.8231 39.1901 59.3351 38.6781 59.9667 38.6781C60.5983 38.6781 61.1103 39.1901 61.1103 39.8217C61.1103 40.4533 60.5983 40.9653 59.9667 40.9653C59.3351 40.9653 58.8231 40.4533 58.8231 39.8217Z" fill="#647534" stroke="white" stroke-width="0.1"/>
<path d="M58.8231 83.9847C58.8231 83.3531 59.3351 82.8411 59.9667 82.8411C60.5983 82.8411 61.1103 83.3531 61.1103 83.9847C61.1103 84.6163 60.5983 85.1283 59.9667 85.1283C59.3351 85.1283 58.8231 84.6163 58.8231 83.9847Z" fill="#647534" stroke="white" stroke-width="0.1"/>
<path d="M76.727 73.2424C76.727 72.6108 77.239 72.0988 77.8706 72.0988C78.5022 72.0988 79.0142 72.6108 79.0142 73.2424C79.0142 73.8739 78.5022 74.3859 77.8706 74.3859C77.239 74.3859 76.727 73.8739 76.727 73.2424Z" fill="#647534" stroke="white" stroke-width="0.1"/>
<path d="M40.9192 73.2424C40.9192 72.6108 41.4312 72.0988 42.0628 72.0988C42.6944 72.0988 43.2064 72.6108 43.2064 73.2424C43.2064 73.8739 42.6944 74.3859 42.0628 74.3859C41.4312 74.3859 40.9192 73.8739 40.9192 73.2424Z" fill="#647534" stroke="white" stroke-width="0.1"/>
</svg>
