<svg width="120" height="120" viewBox="0 0 120 120" fill="none" xmlns="http://www.w3.org/2000/svg">
<circle cx="60" cy="60" r="60" fill="#B4C486"/>
<path d="M73.4497 67.3113C72.8765 66.7979 71.9958 66.848 71.4852 67.4198C68.5829 70.6629 64.3979 72.5217 60 72.5217C55.6035 72.5217 51.417 70.6629 48.5148 67.4198C48.0014 66.848 47.1235 66.7979 46.5502 67.3113C45.977 67.8233 45.9297 68.7026 46.4417 69.2758C49.8713 73.1075 54.8132 75.3043 60 75.3043C65.1881 75.3043 70.1301 73.1061 73.5582 69.2758C74.0702 68.7026 74.0215 67.8233 73.4497 67.3113Z" fill="#647534"/>
<path d="M60 28C42.3555 28 28 42.3555 28 60C28 77.6445 42.3555 92 60 92C77.6445 92 92 77.6445 92 60C92 42.3555 77.6445 28 60 28ZM60 89.2174C43.8887 89.2174 30.7826 76.1113 30.7826 60C30.7826 43.8887 43.8887 30.7826 60 30.7826C76.1113 30.7826 89.2174 43.8887 89.2174 60C89.2174 76.1113 76.1113 89.2174 60 89.2174Z" fill="#647534"/>
<path d="M71.1304 50.2609C67.2946 50.2609 64.1739 53.3816 64.1739 57.2174C64.1739 57.9854 64.7972 58.6087 65.5652 58.6087C66.3332 58.6087 66.9565 57.9854 66.9565 57.2174C66.9565 54.9162 68.8292 53.0435 71.1304 53.0435C73.4316 53.0435 75.3043 54.9162 75.3043 57.2174C75.3043 57.9854 75.9276 58.6087 76.6956 58.6087C77.4636 58.6087 78.0869 57.9854 78.0869 57.2174C78.0869 53.3816 74.9662 50.2609 71.1304 50.2609Z" fill="#647534"/>
<path d="M53.0434 57.2174C53.0434 57.9854 53.6667 58.6087 54.4347 58.6087C55.2027 58.6087 55.8261 57.9854 55.8261 57.2174C55.8261 53.3816 52.7054 50.2609 48.8695 50.2609C45.0337 50.2609 41.913 53.3816 41.913 57.2174C41.913 57.9854 42.5363 58.6087 43.3043 58.6087C44.0723 58.6087 44.6956 57.9854 44.6956 57.2174C44.6956 54.9162 46.5683 53.0435 48.8695 53.0435C51.1707 53.0435 53.0434 54.9162 53.0434 57.2174Z" fill="#647534"/>
</svg>
