<svg width="120" height="120" viewBox="0 0 120 120" fill="none" xmlns="http://www.w3.org/2000/svg">
<circle cx="60" cy="60" r="60" fill="#B4C486"/>
<mask id="mask0" mask-type="alpha" maskUnits="userSpaceOnUse" x="0" y="0" width="120" height="120">
<circle cx="60" cy="60" r="60" fill="white"/>
</mask>
<g mask="url(#mask0)">
<path d="M82.348 40.1805C82.4985 40.9011 83.1041 41.4544 83.8358 41.5292C84.4885 41.5958 85.1451 41.2536 85.4673 40.682C85.8275 40.0428 85.7273 39.2197 85.2219 38.6877C84.7791 38.2216 84.0837 38.0507 83.4718 38.2513L82.348 40.1805ZM82.348 40.1805C82.194 39.3522 82.6719 38.5138 83.4718 38.2513L82.348 40.1805Z" fill="#647534" stroke="#B4C486" stroke-width="0.5"/>
<path d="M84.8537 33.5525C85.4779 33.1871 85.8039 32.4354 85.6456 31.7291L84.8537 33.5525ZM84.8537 33.5525C84.2506 33.9055 83.4747 33.8441 82.932 33.4018M84.8537 33.5525L82.932 33.4018M82.932 33.4018C82.328 32.9081 82.1503 32.0409 82.4968 31.3398C82.8148 30.6964 83.551 30.3209 84.2603 30.4334L82.932 33.4018ZM84.2603 30.4334C84.9364 30.5408 85.4956 31.0612 85.6456 31.729L84.2603 30.4334Z" fill="#647534" stroke="#B4C486" stroke-width="0.5"/>
<path d="M74.6153 36.3067L74.6152 36.3067C74.7433 36.9919 75.3277 37.5383 76.0197 37.6426L74.6153 36.3067ZM74.6153 36.3067L74.6143 36.3018M74.6153 36.3067L74.6143 36.3018M74.6143 36.3018C74.4539 35.5295 74.8931 34.7194 75.6228 34.4179C76.2726 34.1494 77.0445 34.3221 77.5172 34.8428L77.5172 34.8428C77.9895 35.3631 78.0842 36.1489 77.7539 36.7698L77.7539 36.7698M74.6143 36.3018L77.7539 36.7698M77.7539 36.7698C77.4246 37.3891 76.7134 37.747 76.0197 37.6427L77.7539 36.7698Z" fill="#647534" stroke="#B4C486" stroke-width="0.5"/>
<path d="M69.3661 54.9074V55.0913L69.5416 55.1461C78.3433 57.8921 84.7499 66.1242 84.75 75.8249C84.75 82.2265 81.9411 88.2655 77.0429 92.394C76.7703 92.6236 76.4252 92.7496 76.0687 92.7496H69.0273C69.0247 92.7496 69.0223 92.7497 69.0201 92.7497C69.0179 92.7497 69.0156 92.7496 69.0131 92.7496H57.2453H57.244H50.1623C49.8058 92.7496 49.4607 92.6236 49.1882 92.394C44.2899 88.2655 41.481 82.2265 41.481 75.8249C41.481 66.1242 47.8877 57.8921 56.6892 55.1461L56.8648 55.0913V54.9074V46.6019C56.8648 45.9392 57.2939 45.3764 57.8913 45.1747L58.0613 45.1172V44.9378V40.0763V39.8263H57.8113H55.5759C54.3575 39.8263 53.3683 40.82 53.3683 42.0402V43.7804C53.3683 46.7662 50.9395 49.1958 47.955 49.1958C44.9702 49.1958 42.5416 46.7662 42.5416 43.7804V39.7557C42.5416 37.8508 40.9958 36.3005 39.094 36.3005C37.1923 36.3005 35.6465 37.8508 35.6465 39.7557V47.02V47.2205L35.8423 47.264C39.923 48.1709 43.0524 52.3129 43.0524 57.3149C43.0524 62.9926 39.0282 67.5521 34.1512 67.5521C29.2742 67.5521 25.25 62.9926 25.25 57.3149C25.25 52.3246 28.3647 48.1901 32.4313 47.2704L32.6262 47.2263V47.0265V39.7557C32.6262 36.1877 35.528 33.2847 39.094 33.2847C42.6601 33.2847 45.5619 36.1877 45.5619 39.7557V43.7804C45.5619 45.1029 46.6345 46.18 47.955 46.18C49.2754 46.18 50.3479 45.1029 50.3479 43.7804V42.0402C50.3479 39.1567 52.6935 36.8105 55.5759 36.8105H57.8113H58.0613V36.5605V34.7579C58.0613 33.9254 58.7372 33.25 59.5715 33.25H66.6594C67.4937 33.25 68.1695 33.9254 68.1695 34.7579V36.6717V36.9087L68.4062 36.9213C69.2026 36.9638 69.8348 37.6203 69.8348 38.4248C69.8348 39.2292 69.2028 39.8857 68.4062 39.9282L68.1695 39.9409V40.1779V44.9378V45.1172L68.3395 45.1746C68.9368 45.3764 69.3661 45.9393 69.3661 46.6019V54.9074ZM67.5846 89.7338H67.7914L67.8302 89.5307C68.4783 86.1356 68.818 82.2724 68.818 78.2607C68.818 72.3882 68.0955 66.8798 66.7769 62.7512C66.0906 60.6027 65.3712 59.2271 64.737 58.3829C64.4199 57.9608 64.1203 57.6666 63.852 57.4758C63.5885 57.2883 63.3353 57.1868 63.1154 57.1868C62.8956 57.1868 62.6424 57.2883 62.3788 57.4758C62.1106 57.6666 61.811 57.9608 61.4939 58.3829C60.8596 59.2271 60.1402 60.6027 59.454 62.7512C58.1353 66.8798 57.4128 72.3881 57.4128 78.2607C57.4128 82.2722 57.7526 86.1354 58.4007 89.5307L58.4395 89.7338H58.6463H67.5846ZM61.3317 36.2658H61.0817V36.5158V44.844V45.094H61.3317H64.8992H65.1492V44.844V36.5158V36.2658H64.8992H61.3317ZM66.3458 48.3598V48.1098H66.0958H60.3851H60.1351H60.135V48.3598H59.8851V54.1249V54.4115L60.169 54.3726C61.1329 54.2408 62.1162 54.171 63.1154 54.171C64.1146 54.171 65.0979 54.2406 66.0619 54.3726L66.3458 54.4115V54.1249V48.3598ZM57.9915 58.3474L58.2651 57.8197L57.6966 57.9932C50.0678 60.322 44.5013 67.4338 44.5013 75.8249C44.5013 81.1228 46.7361 86.1323 50.6548 89.6695L50.7261 89.734H50.8223H55.0678H55.3659L55.314 89.4404C54.7098 86.0259 54.3924 82.2071 54.3924 78.2608C54.3924 72.0702 55.1704 66.2368 56.5765 61.8349C56.9441 60.684 57.4113 59.4666 57.9915 58.3474ZM75.4086 89.7338H75.5047L75.5761 89.6694C79.4948 86.1323 81.7295 81.1228 81.7295 75.8248C81.7295 67.4337 76.163 60.3219 68.5343 57.9931L67.9658 57.8196L68.2394 58.3473C68.8196 59.4665 69.2868 60.6839 69.6544 61.8348C71.0604 66.2368 71.8383 72.0701 71.8383 78.2607C71.8383 82.2074 71.521 86.0261 70.9169 89.4403L70.8649 89.7338H71.1631H75.4086ZM69.0372 92.7507L69.0346 92.7505C69.0358 92.7506 69.0368 92.7507 69.0373 92.7507L69.0372 92.7507ZM34.1514 64.5363C37.4415 64.5363 40.0321 61.2446 40.0321 57.3149C40.0321 53.3853 37.4415 50.0936 34.1514 50.0937C30.8611 50.0937 28.2705 53.3853 28.2705 57.3149C28.2705 61.2446 30.8611 64.5363 34.1514 64.5363Z" fill="#647534" stroke="#B4C486" stroke-width="0.5"/>
<path d="M-0.450958 94.7189L117.599 26.5626L120.536 31.6491L2.48575 99.8054L-0.450958 94.7189Z" fill="#647534" stroke="#B4C486" stroke-width="3"/>
</g>
</svg>
