<svg width="120" height="120" viewBox="0 0 120 120" fill="none" xmlns="http://www.w3.org/2000/svg">
<circle cx="60" cy="60" r="60" fill="#B4C486"/>
<path fill-rule="evenodd" clip-rule="evenodd" d="M82.9512 53.0193C82.1417 52.232 80.829 52.2323 80.0193 53.0193C79.2097 53.8064 79.2097 55.0824 80.0193 55.8695L80.9215 56.7463H73.9475C73.4465 56.7463 72.9491 56.7688 72.4555 56.8107V47.7753C72.9683 47.7154 73.4881 47.6848 74.0125 47.6848H80.9294L80.0346 48.542C79.2316 49.3112 79.2316 50.5586 80.0346 51.3279C80.8379 52.0975 82.1396 52.0971 82.9425 51.3279L87.3474 47.1078C87.733 46.7384 87.9498 46.2374 87.9498 45.7149C87.9498 45.1925 87.7329 44.6912 87.3473 44.3219L82.9424 40.102C82.1395 39.3325 80.8375 39.3328 80.0345 40.102C79.2315 40.8713 79.2315 42.1185 80.0345 42.8878L80.9292 43.7449H74.0125C73.4896 43.7449 72.9702 43.7679 72.4555 43.8132V35.0154C72.4555 33.9024 71.5273 33 70.3824 33H50.3969C49.2519 33 48.3237 33.9024 48.3237 35.0154V49.4917C44.0233 55.2045 37.2779 54.5877 37.0732 54.5877C35.9282 54.5877 35 55.4901 35 56.6031C35 57.7162 35.9282 58.6186 37.0732 58.6186C38.9413 58.6186 43.872 58.5676 48.3237 55.2379V62.4444C44.0233 68.1571 37.2779 67.5402 37.0732 67.5402C35.9282 67.5402 35 68.4426 35 69.5557C35 70.6688 35.9282 71.5711 37.0732 71.5711C38.9413 71.5711 43.872 71.5202 48.3237 68.1904V75.3968C44.0233 81.1097 37.2779 80.4928 37.0732 80.4928C35.9282 80.4928 35 81.3952 35 82.5083C35 83.6213 35.9282 84.5237 37.0732 84.5237C38.9413 84.5237 43.872 84.4728 48.3237 81.1429V88.9846C48.3237 90.0976 49.2519 91 50.3969 91H70.3824C71.5273 91 72.4555 90.0976 72.4555 88.9846V73.8753C72.9683 73.8154 73.4881 73.7849 74.0125 73.7849H80.9294L80.0346 74.642C79.2316 75.4112 79.2316 76.6586 80.0346 77.4279C80.8379 78.1975 82.1396 78.1971 82.9425 77.4279L87.3474 73.2078C87.733 72.8384 87.9498 72.3374 87.9498 71.8149C87.9498 71.2925 87.7329 70.7912 87.3473 70.4219L82.9424 66.202C82.1395 65.4325 80.8375 65.4328 80.0345 66.202C79.2315 66.9713 79.2315 68.2185 80.0345 68.9878L80.9292 69.8449H74.0125C73.4896 69.8449 72.9702 69.8679 72.4555 69.9132V60.8622C72.9474 60.8068 73.4453 60.7774 73.9475 60.7774H80.9216L80.0195 61.6544C79.2098 62.4413 79.2098 63.7175 80.0195 64.5046C80.8289 65.2914 82.1415 65.292 82.9514 64.5046L87.3927 60.187C87.7815 59.809 88 59.2964 88 58.7619C88 58.2274 87.7816 57.7147 87.3927 57.3369L82.9512 53.0193ZM52.47 86.9691H68.3092V75.068C66.3445 76.006 64.6367 77.4288 63.3777 79.2377C62.953 79.8477 61.745 80.5623 60.5262 79.7839C59.5814 79.1803 59.3261 77.9573 59.9561 77.052C62.0012 74.1134 64.9428 71.9459 68.3092 70.7913V62.038C66.2815 62.9966 64.518 64.471 63.2249 66.3564C62.7483 67.051 61.5137 67.6695 60.3498 66.9152C59.3972 66.2977 59.1397 65.0463 59.775 64.1202C61.8596 61.0806 64.8682 58.8479 68.3092 57.6767V48.968C66.3445 49.906 64.6367 51.3288 63.3777 53.1377C62.953 53.7477 61.745 54.4623 60.5262 53.6839C59.5814 53.0803 59.3261 51.8573 59.9561 50.952C62.0012 48.0134 64.9428 45.8459 68.3092 44.6913V37.0309H52.47V86.9691Z" fill="#647534" stroke="#B4C486" stroke-width="1.5"/>
</svg>
