<svg width="120" height="120" viewBox="0 0 120 120" fill="none" xmlns="http://www.w3.org/2000/svg">
<circle cx="60" cy="60" r="60" fill="#B4C486"/>
<path d="M54.9811 35.3746C52.8957 35.3746 51.199 37.0995 51.199 39.2196C51.199 41.3398 52.8957 43.0646 54.9811 43.0646C57.0666 43.0646 58.7633 41.3397 58.7633 39.2196C58.7634 37.0995 57.0667 35.3746 54.9811 35.3746ZM54.9811 41.2482C53.8809 41.2482 52.9857 40.3381 52.9857 39.2196C52.9857 38.1011 53.8809 37.191 54.9811 37.191C56.0814 37.191 56.9765 38.1011 56.9765 39.2196C56.9765 40.3381 56.0815 41.2482 54.9811 41.2482Z" fill="#586927"/>
<path d="M44.75 35.3746C42.6646 35.3746 40.9679 37.0995 40.9679 39.2196C40.9679 41.3398 42.6646 43.0646 44.75 43.0646C46.8355 43.0646 48.5321 41.3397 48.5321 39.2196C48.5321 37.0995 46.8355 35.3746 44.75 35.3746ZM44.75 41.2482C43.6498 41.2482 42.7546 40.3381 42.7546 39.2196C42.7546 38.1011 43.6498 37.191 44.75 37.191C45.8503 37.191 46.7454 38.1011 46.7454 39.2196C46.7454 40.3381 45.8503 41.2482 44.75 41.2482Z" fill="#586927"/>
<path d="M77.5501 35.3746H67.2745C66.1515 35.3746 65.2379 36.3034 65.2379 37.4451V40.9942C65.2379 42.1359 66.1515 43.0647 67.2745 43.0647H77.5501C78.6732 43.0647 79.5868 42.1359 79.5868 40.9942V37.4451C79.5868 36.3034 78.6732 35.3746 77.5501 35.3746ZM77.8 40.9942C77.8 41.1343 77.688 41.2483 77.5501 41.2483H67.2745C67.1367 41.2483 67.0246 41.1343 67.0246 40.9942V37.4451C67.0246 37.305 67.1367 37.191 67.2745 37.191H77.5501C77.688 37.191 77.8 37.305 77.8 37.4451V40.9942Z" fill="#586927"/>
<path d="M60.9995 49.6045C57.3352 49.6045 53.868 50.8056 50.9729 53.0782C50.5823 53.3847 50.5103 53.955 50.8118 54.3521C51.1134 54.7491 51.6744 54.8224 52.0648 54.5159C54.6444 52.4911 57.7339 51.4209 60.9995 51.4209C69.0687 51.4209 75.6335 58.0947 75.6335 66.298C75.6335 74.5012 69.0687 81.1751 60.9995 81.1751C52.9303 81.1751 46.3656 74.5011 46.3656 66.298C46.3656 62.8835 47.5324 59.548 49.6511 56.9056C49.9628 56.5168 49.9055 55.9447 49.5231 55.6278C49.1406 55.3109 48.5779 55.3691 48.2662 55.7579C45.8884 58.7233 44.5787 62.4666 44.5787 66.298C44.5787 75.5028 51.945 82.9915 60.9994 82.9915C70.0538 82.9915 77.4201 75.5028 77.4201 66.298C77.4201 57.0932 70.0539 49.6045 60.9995 49.6045Z" fill="#586927"/>
<path d="M86.999 85.9497V37.9801C86.999 34.1312 83.9194 31 80.1342 31H41.8648C38.0796 31 35 34.1312 35 37.9801V86.0212C35 89.8694 38.0796 93 41.8647 93H80.1341C83.8854 93 86.9417 89.9247 86.9963 86.1241C87.0002 86.0903 87.0008 85.9734 86.999 85.9497ZM85.2123 85.1129H77.8165C77.3231 85.1129 76.9231 85.5196 76.9231 86.0211C76.9231 86.5227 77.3231 86.9293 77.8165 86.9293H85.1337C84.7103 89.3444 82.6296 91.1836 80.1342 91.1836H41.8648C39.3695 91.1836 37.2888 89.3444 36.8655 86.9294H74.2429C74.7363 86.9294 75.1363 86.5228 75.1363 86.0212C75.1363 85.5197 74.7363 85.113 74.2429 85.113H36.7868V47.4392H85.2123V85.1129ZM85.2123 45.6229H36.7867V37.9801C36.7867 35.1328 39.0648 32.8164 41.8648 32.8164H80.1342C82.9342 32.8164 85.2123 35.1328 85.2123 37.9801V45.6229Z" fill="#586927"/>
<path d="M60.9995 53.8264C54.2349 53.8264 48.7314 59.4213 48.7314 66.2982C48.7315 66.9033 48.7743 67.5087 48.8588 68.0972C48.8588 68.0977 48.859 68.098 48.859 68.0985C49.2767 71.0361 50.724 73.7345 52.9347 75.6965C55.1678 77.6785 58.0319 78.77 60.9994 78.77C63.9669 78.77 66.831 77.6785 69.0642 75.6965C71.2747 73.7346 72.722 71.0366 73.1398 68.0991C73.1399 68.0985 73.14 68.0979 73.1402 68.0973C73.2246 67.5093 73.2675 66.9039 73.2675 66.2982C73.2675 59.4212 67.764 53.8264 60.9995 53.8264ZM67.8891 74.3282C65.9815 76.0212 63.5348 76.9536 60.9994 76.9536C58.464 76.9536 56.0173 76.0212 54.1098 74.3282C52.3595 72.7748 51.1692 70.6824 50.72 68.3883L51.2708 68.0072C52.1913 67.3705 53.437 67.37 54.3582 68.0072C55.879 69.0593 57.9345 69.0595 59.4557 68.0072C60.3748 67.3718 61.6239 67.3714 62.543 68.0072C64.0645 69.0596 66.1192 69.0594 67.641 68.007C68.5637 67.3689 69.8057 67.3686 70.7277 68.0071L71.2786 68.3883C70.8297 70.6823 69.6395 72.7748 67.8891 74.3282ZM71.4807 66.3425C71.4743 66.3388 71.4677 66.3355 71.4612 66.3318C70.9817 66.0482 70.4576 65.8657 69.9122 65.7682C69.2295 65.6461 68.5107 65.7029 67.8494 65.9104C67.4184 66.0456 67.0081 66.2472 66.6354 66.5054C65.7141 67.1427 64.4683 67.1418 63.5481 66.5054C62.7928 65.983 61.9115 65.7068 60.9994 65.7068C60.0931 65.7068 59.1998 65.9873 58.4506 66.5053C57.5277 67.1435 56.2857 67.1431 55.3632 66.5053C54.6079 65.9829 53.7266 65.7067 52.8146 65.7067C52.023 65.7067 51.2209 65.9237 50.5376 66.3319C50.5312 66.3356 50.5246 66.3388 50.5183 66.3425C50.5181 66.3276 50.5181 66.3129 50.5181 66.298C50.5183 60.4228 55.2201 55.6427 60.9995 55.6427C66.779 55.6427 71.4808 60.4228 71.4808 66.2981C71.4808 66.3129 71.4808 66.3278 71.4807 66.3425Z" fill="#586927"/>
<path d="M54.9811 35.3746C52.8957 35.3746 51.199 37.0995 51.199 39.2196C51.199 41.3398 52.8957 43.0646 54.9811 43.0646C57.0666 43.0646 58.7633 41.3397 58.7633 39.2196C58.7634 37.0995 57.0667 35.3746 54.9811 35.3746ZM54.9811 41.2482C53.8809 41.2482 52.9857 40.3381 52.9857 39.2196C52.9857 38.1011 53.8809 37.191 54.9811 37.191C56.0814 37.191 56.9765 38.1011 56.9765 39.2196C56.9765 40.3381 56.0815 41.2482 54.9811 41.2482Z" stroke="#586927" stroke-width="0.6"/>
<path d="M44.75 35.3746C42.6646 35.3746 40.9679 37.0995 40.9679 39.2196C40.9679 41.3398 42.6646 43.0646 44.75 43.0646C46.8355 43.0646 48.5321 41.3397 48.5321 39.2196C48.5321 37.0995 46.8355 35.3746 44.75 35.3746ZM44.75 41.2482C43.6498 41.2482 42.7546 40.3381 42.7546 39.2196C42.7546 38.1011 43.6498 37.191 44.75 37.191C45.8503 37.191 46.7454 38.1011 46.7454 39.2196C46.7454 40.3381 45.8503 41.2482 44.75 41.2482Z" stroke="#586927" stroke-width="0.6"/>
<path d="M77.5501 35.3746H67.2745C66.1515 35.3746 65.2379 36.3034 65.2379 37.4451V40.9942C65.2379 42.1359 66.1515 43.0647 67.2745 43.0647H77.5501C78.6732 43.0647 79.5868 42.1359 79.5868 40.9942V37.4451C79.5868 36.3034 78.6732 35.3746 77.5501 35.3746ZM77.8 40.9942C77.8 41.1343 77.688 41.2483 77.5501 41.2483H67.2745C67.1367 41.2483 67.0246 41.1343 67.0246 40.9942V37.4451C67.0246 37.305 67.1367 37.191 67.2745 37.191H77.5501C77.688 37.191 77.8 37.305 77.8 37.4451V40.9942Z" stroke="#586927" stroke-width="0.6"/>
<path d="M60.9995 49.6045C57.3352 49.6045 53.868 50.8056 50.9729 53.0782C50.5823 53.3847 50.5103 53.955 50.8118 54.3521C51.1134 54.7491 51.6744 54.8224 52.0648 54.5159C54.6444 52.4911 57.7339 51.4209 60.9995 51.4209C69.0687 51.4209 75.6335 58.0947 75.6335 66.298C75.6335 74.5012 69.0687 81.1751 60.9995 81.1751C52.9303 81.1751 46.3656 74.5011 46.3656 66.298C46.3656 62.8835 47.5324 59.548 49.6511 56.9056C49.9628 56.5168 49.9055 55.9447 49.5231 55.6278C49.1406 55.3109 48.5779 55.3691 48.2662 55.7579C45.8884 58.7233 44.5787 62.4666 44.5787 66.298C44.5787 75.5028 51.945 82.9915 60.9994 82.9915C70.0538 82.9915 77.4201 75.5028 77.4201 66.298C77.4201 57.0932 70.0539 49.6045 60.9995 49.6045Z" stroke="#586927" stroke-width="0.6"/>
<path d="M86.999 85.9497V37.9801C86.999 34.1312 83.9194 31 80.1342 31H41.8648C38.0796 31 35 34.1312 35 37.9801V86.0212C35 89.8694 38.0796 93 41.8647 93H80.1341C83.8854 93 86.9417 89.9247 86.9963 86.1241C87.0002 86.0903 87.0008 85.9734 86.999 85.9497ZM85.2123 85.1129H77.8165C77.3231 85.1129 76.9231 85.5196 76.9231 86.0211C76.9231 86.5227 77.3231 86.9293 77.8165 86.9293H85.1337C84.7103 89.3444 82.6296 91.1836 80.1342 91.1836H41.8648C39.3695 91.1836 37.2888 89.3444 36.8655 86.9294H74.2429C74.7363 86.9294 75.1363 86.5228 75.1363 86.0212C75.1363 85.5197 74.7363 85.113 74.2429 85.113H36.7868V47.4392H85.2123V85.1129ZM85.2123 45.6229H36.7867V37.9801C36.7867 35.1328 39.0648 32.8164 41.8648 32.8164H80.1342C82.9342 32.8164 85.2123 35.1328 85.2123 37.9801V45.6229Z" stroke="#586927" stroke-width="0.6"/>
<path d="M60.9995 53.8264C54.2349 53.8264 48.7314 59.4213 48.7314 66.2982C48.7315 66.9033 48.7743 67.5087 48.8588 68.0972C48.8588 68.0977 48.859 68.098 48.859 68.0985C49.2767 71.0361 50.724 73.7345 52.9347 75.6965C55.1678 77.6785 58.0319 78.77 60.9994 78.77C63.9669 78.77 66.831 77.6785 69.0642 75.6965C71.2747 73.7346 72.722 71.0366 73.1398 68.0991C73.1399 68.0985 73.14 68.0979 73.1402 68.0973C73.2246 67.5093 73.2675 66.9039 73.2675 66.2982C73.2675 59.4212 67.764 53.8264 60.9995 53.8264ZM67.8891 74.3282C65.9815 76.0212 63.5348 76.9536 60.9994 76.9536C58.464 76.9536 56.0173 76.0212 54.1098 74.3282C52.3595 72.7748 51.1692 70.6824 50.72 68.3883L51.2708 68.0072C52.1913 67.3705 53.437 67.37 54.3582 68.0072C55.879 69.0593 57.9345 69.0595 59.4557 68.0072C60.3748 67.3718 61.6239 67.3714 62.543 68.0072C64.0645 69.0596 66.1192 69.0594 67.641 68.007C68.5637 67.3689 69.8057 67.3686 70.7277 68.0071L71.2786 68.3883C70.8297 70.6823 69.6395 72.7748 67.8891 74.3282ZM71.4807 66.3425C71.4743 66.3388 71.4677 66.3355 71.4612 66.3318C70.9817 66.0482 70.4576 65.8657 69.9122 65.7682C69.2295 65.6461 68.5107 65.7029 67.8494 65.9104C67.4184 66.0456 67.0081 66.2472 66.6354 66.5054C65.7141 67.1427 64.4683 67.1418 63.5481 66.5054C62.7928 65.983 61.9115 65.7068 60.9994 65.7068C60.0931 65.7068 59.1998 65.9873 58.4506 66.5053C57.5277 67.1435 56.2857 67.1431 55.3632 66.5053C54.6079 65.9829 53.7266 65.7067 52.8146 65.7067C52.023 65.7067 51.2209 65.9237 50.5376 66.3319C50.5312 66.3356 50.5246 66.3388 50.5183 66.3425C50.5181 66.3276 50.5181 66.3129 50.5181 66.298C50.5183 60.4228 55.2201 55.6427 60.9995 55.6427C66.779 55.6427 71.4808 60.4228 71.4808 66.2981C71.4808 66.3129 71.4808 66.3278 71.4807 66.3425Z" stroke="#586927" stroke-width="0.6"/>
</svg>
