<svg width="120" height="120" viewBox="0 0 120 120" fill="none" xmlns="http://www.w3.org/2000/svg">
<circle cx="60" cy="60" r="60" fill="#B4C486"/>
<path fill-rule="evenodd" clip-rule="evenodd" d="M98.3568 54.5259C98.3568 54.3354 98.378 54.166 98.378 53.9755C98.378 48.7262 94.0926 44.4718 88.8312 44.4718C87.1977 44.4718 85.649 44.8739 84.2488 45.6359C83.1668 40.6618 78.6692 37 73.2806 37L72.6866 37.0212C67.9557 37.254 64.0945 40.302 62.6519 44.4294C60 41.6778 56.1601 40.0268 51.9595 40.2385C45.2768 40.556 39.973 45.4243 39.0608 51.6684C37.8727 51.2451 36.6422 51.0546 35.3906 51.0546C29.0048 51.0546 23.7859 56.2404 23.7859 62.6115C23.7859 62.7385 23.7859 62.8443 23.8071 62.9713C20.5824 63.8603 16 65.7441 16 72.3269C16 77.555 20.6461 81.8095 26.3742 81.8095C32.6462 81.5688 38.9385 81.7071 45.2131 81.7883L62.9533 81.8668C63.7281 81.8702 64.3596 81.2462 64.3654 80.4714C64.3713 79.692 63.742 79.0565 62.9625 79.0548L45.2131 79.0171L26.756 78.9732H26.3529C22.1948 78.9732 18.8216 75.9887 18.8216 72.3057C18.8216 67.9243 21.2189 66.5061 25.6528 65.4055L26.7136 64.961L26.756 63.8815L26.6924 63.3523C26.65 63.0983 26.6287 62.8443 26.6287 62.5903C26.6287 57.7643 30.5535 53.8485 35.3906 53.8485C36.8544 53.8485 38.2758 54.2295 39.6336 54.9915L41.7763 56.198L41.7339 53.7427C41.6278 48.0066 46.189 43.3076 52.0868 43.0113L52.6596 42.9901C55.4176 42.9901 57.9421 43.9849 59.8515 45.6359C60.9547 46.5884 61.8669 47.7526 62.5034 49.0649C63.0762 50.2714 63.4368 51.6049 63.5005 53.0019C63.5217 53.2135 63.5005 53.404 63.4793 53.912L63.352 57.5527L65.9614 54.9915C67.6162 53.2982 69.8438 52.3669 72.1987 52.3669C77.0357 52.3669 80.9605 56.2827 80.9605 61.1087C80.9605 61.7013 80.8968 62.294 80.7907 62.8443L80.4937 64.2625L81.9151 64.5165C84.2276 64.9186 86.0945 66.2733 87.1128 68.0724C87.622 68.9403 87.919 69.8928 87.9826 70.9299C88.1736 74.6129 85.2035 78.9097 80.9605 79.1214C80.1677 79.1618 78.2512 79.1822 76.4422 79.1893C75.6669 79.1923 75.0386 79.8206 75.0386 80.5959C75.0386 81.3714 75.6671 82.0002 76.4425 81.9973C78.3056 81.9904 80.2835 81.9701 81.109 81.9365C86.5188 81.6613 91.0164 76.539 90.8043 70.9299H91.8226C93.6046 70.9299 95.1321 70.9087 95.9595 70.8664C98.2295 70.7606 100.309 69.6599 101.857 67.8184C103.321 66.0616 104.085 63.8391 103.979 61.6801C103.83 58.3993 101.581 55.6054 98.3568 54.5259ZM95.8322 68.0513C97.2961 67.9878 98.6538 67.2681 99.6934 66.0193C100.69 64.8128 101.242 63.2888 101.157 61.8071C101.03 59.4153 99.1418 57.4045 96.5535 56.96L95.1321 56.706L95.4291 55.2879C95.514 54.8645 95.5564 54.42 95.5564 53.9544C95.5564 50.2714 92.5439 47.2658 88.8525 47.2658C87.0492 47.2658 85.352 47.9854 84.0791 49.2766L81.4908 51.8801L81.6394 48.2183C81.6606 47.8373 81.6606 47.6891 81.6606 47.5198C81.4484 43.2018 77.757 39.8151 73.2806 39.8151L72.8351 39.8363C68.4648 40.0691 65.0916 43.4135 64.8795 47.5621C65.0068 47.7738 65.134 47.9643 65.2401 48.1971C65.6856 49.1496 66.0039 50.1656 66.1948 51.2239C67.9981 50.1232 70.0559 49.5517 72.1987 49.5517C78.5844 49.5517 83.7821 54.7375 83.7821 61.1087C83.7821 61.4262 83.7609 61.7437 83.7396 62.0611C86.837 63.0136 89.2131 65.2785 90.2527 68.1148C92.6075 68.1148 94.7715 68.1148 95.8322 68.0513Z" fill="#586927"/>
<path d="M70.5873 81.9773C71.3659 81.9891 72 81.3568 72 80.5782C72 79.806 71.376 79.1811 70.6039 79.169C70.0448 79.1602 69.8056 79.1497 69.6297 79.1386C68.8466 79.0893 68.2041 79.7289 68.2041 80.5135C68.2041 81.2824 68.8221 81.8983 69.5895 81.9464C69.7684 81.9576 69.9953 81.9684 70.5873 81.9773Z" fill="#586927"/>
</svg>
