<svg width="120" height="120" viewBox="0 0 120 120" fill="none" xmlns="http://www.w3.org/2000/svg">
<circle cx="60" cy="60" r="60" fill="#B4C486"/>
<path d="M41.8389 65.6376C41.8953 65.6446 41.7834 65.6376 41.8389 65.6376V65.6376Z" fill="#586927"/>
<path d="M95.6614 84.0359C91.0198 84.0359 86.4429 83.5244 82.0018 82.5422C82.5981 80.8962 82.9183 79.1401 82.9362 77.3346C82.9773 73.2112 81.4339 69.363 78.5904 66.4991C76.7037 64.5988 74.3466 63.2155 71.7742 62.4987C71.7519 62.4925 71.7297 62.4869 71.7072 62.4819C65.2125 60.6787 59.3416 57.5213 54.2577 53.0968C53.7018 52.613 52.8563 52.668 52.3688 53.2195C51.8815 53.771 51.9368 54.6103 52.4926 55.0939C54.3452 56.7061 56.2965 58.1596 58.3393 59.4505C59.5492 61.7709 60.1463 64.3699 60.0667 66.996C60.0445 67.7293 60.6255 68.3415 61.3643 68.3635C61.378 68.3639 61.3916 68.3641 61.4053 68.3641C62.1259 68.3641 62.7206 67.7953 62.7424 67.0757C62.7992 65.2049 62.5615 63.3456 62.049 61.5637C64.256 62.6916 66.5552 63.6458 68.9393 64.422C70.3154 66.6364 71.107 69.1589 71.2325 71.7472C71.2669 72.4582 71.8587 73.0115 72.5684 73.0115C72.59 73.0115 72.612 73.011 72.6338 73.0099C73.3721 72.9746 73.9419 72.3521 73.9063 71.6194C73.8052 69.5353 73.3346 67.4888 72.5294 65.5703C74.0769 66.2162 75.4932 67.1647 76.6834 68.3634C80.2859 71.9917 81.1807 77.3471 79.3935 81.9072C65.2075 78.1317 52.5964 69.4895 44.0019 57.2436C43.5793 56.6417 42.7453 56.4937 42.1386 56.9128C41.532 57.3319 41.3827 58.1598 41.8052 58.7618C47.7293 67.2028 55.6846 74.2207 64.8111 79.0568C69.0376 81.2963 73.514 83.0609 78.1356 84.328C77.6809 85.0133 77.1556 85.6654 76.557 86.2719C73.7576 88.9249 69.5561 89.9826 65.8465 88.9665C61.4864 87.7724 57.3394 85.9026 53.5602 83.4491C54.7956 83.3267 56.0202 83.0788 57.2259 82.6998C57.9306 82.4783 58.3209 81.7317 58.0978 81.0324C57.8745 80.3332 57.1227 79.9461 56.4176 80.1672C54.2808 80.8389 52.0758 81.0379 49.8577 80.7616C48.7021 79.8276 47.5911 78.8343 46.5323 77.7836C42.6192 73.9005 39.5747 69.395 37.4353 64.5481C38.8147 65.0823 40.3421 65.4511 41.8386 65.6371C42.5036 65.6371 43.1643 65.1508 43.249 64.479C43.3409 63.7511 42.8208 63.0871 42.0872 62.996C39.9174 62.7263 37.8781 62.021 36.0169 60.8992C32.6073 50.808 32.9316 39.6037 37.3226 29.5838C38.6085 35.4432 41.0187 41.0529 44.3967 46.0008C44.8114 46.608 45.6434 46.767 46.2556 46.3555C46.8676 45.944 47.0276 45.1182 46.613 44.5108C42.691 38.7662 40.1517 32.0752 39.2702 25.1616C39.1975 24.5911 38.7631 24.1318 38.1938 24.0239C37.6248 23.9155 37.0501 24.1834 36.7702 24.687C34.3596 29.0244 32.6781 33.7029 31.7721 38.5924C30.8793 43.4105 30.7602 48.3167 31.4179 53.1749C32.7857 63.2771 37.3577 72.4364 44.6394 79.6625C50.3321 85.3116 57.4192 89.4143 65.1344 91.5275C66.296 91.8457 67.4961 92 68.6973 92C72.2466 92 75.804 90.6524 78.3939 88.2042C78.4089 88.1905 78.4245 88.1783 78.4392 88.1639C78.4522 88.1513 78.4629 88.1379 78.4752 88.125C79.4052 87.1819 80.1998 86.1359 80.8502 85.0123C85.6913 86.1225 90.6669 86.6927 95.6615 86.6927C96.4008 86.6927 97 86.098 97 85.3644C97 84.6309 96.4006 84.0359 95.6614 84.0359Z" fill="#586927"/>
<path d="M49.201 51.3031C49.553 51.3031 49.8984 51.161 50.1473 50.9139C50.3963 50.6669 50.5395 50.3242 50.5395 49.9749C50.5395 49.6256 50.3963 49.2829 50.1473 49.0358C49.8984 48.7888 49.553 48.6467 49.201 48.6467C48.849 48.6467 48.5037 48.7888 48.2547 49.0358C48.0058 49.2829 47.8625 49.6256 47.8625 49.9749C47.8625 50.3255 48.0058 50.6669 48.2547 50.9139C48.5037 51.161 48.849 51.3031 49.201 51.3031Z" fill="#586927"/>
</svg>
