<svg width="100" height="100" viewBox="0 0 100 100" fill="none" xmlns="http://www.w3.org/2000/svg">
<circle cx="50" cy="50" r="50" fill="#B4C486"/>
<path d="M77.6404 23.8885C77.0612 23.3107 76.3646 22.8641 75.5976 22.5792C74.8307 22.2943 74.0115 22.1777 73.1955 22.2373C63.6685 22.9505 54.7186 27.0768 47.9894 33.8583L47.1051 34.7582H35.5702C35.4143 34.7583 35.2599 34.7895 35.1161 34.85C34.9723 34.9105 34.8421 34.999 34.7329 35.1104L22.5015 47.6313C22.3398 47.7963 22.2303 48.0054 22.1869 48.2323C22.1435 48.4593 22.168 48.694 22.2574 48.9071C22.3468 49.1202 22.4972 49.3022 22.6895 49.4302C22.8819 49.5582 23.1078 49.6266 23.3389 49.6268H34.592L37.6049 52.6396C33.0337 52.8074 28.6998 54.7168 25.4909 57.9766C15.9046 67.6803 23.4563 78.7535 23.5345 78.863C23.6775 79.068 23.8822 79.2219 24.1188 79.3024C24.3553 79.3829 24.6114 79.3859 24.8498 79.3108C25.0881 79.2357 25.2963 79.0865 25.4439 78.8849C25.5916 78.6834 25.6711 78.4399 25.6709 78.19C25.6709 74.426 29.2002 70.8575 32.9252 70.8575C34.7136 70.8679 36.4249 71.5872 37.6836 72.8576C38.9424 74.1281 39.6458 75.846 39.6395 77.6344C39.6432 77.8466 39.7043 78.0538 39.8163 78.2341C39.9283 78.4143 40.0872 78.5607 40.2758 78.6579C40.4645 78.755 40.676 78.7992 40.8877 78.7857C41.0995 78.7722 41.3037 78.7016 41.4785 78.5813C43.7344 76.8306 45.5631 74.5903 46.8265 72.0295C48.09 69.4687 48.7552 66.6543 48.7719 63.7989L51.9022 66.9291V78.19C51.9024 78.4221 51.9713 78.6488 52.1003 78.8417C52.2293 79.0345 52.4126 79.1848 52.6269 79.2736C52.8413 79.3623 53.0771 79.3856 53.3047 79.3404C53.5323 79.2951 53.7413 79.1835 53.9055 79.0196L66.4264 66.4987C66.6428 66.2826 66.7663 65.9906 66.7707 65.6848V54.4238L67.6707 53.5395C74.4522 46.8103 78.5784 37.8604 79.2916 28.3334C79.3512 27.5175 79.2346 26.6982 78.9497 25.9313C78.6648 25.1644 78.2183 24.4677 77.6404 23.8885ZM36.0632 37.1059H44.7574L34.5842 47.2791H26.1248L36.0632 37.1059ZM41.682 75.3181C41.1772 73.3757 40.0436 71.6551 38.4581 70.4249C36.8725 69.1947 34.9242 68.524 32.9174 68.5177C29.0672 68.5177 25.4831 71.2253 24.0119 74.7781C22.6424 71.3583 21.539 65.3092 27.1421 59.6513C28.8046 57.9606 30.8315 56.6721 33.0679 55.8841C35.3044 55.0961 37.6913 54.8295 40.0464 55.1047L46.3069 61.3651C46.6237 63.8885 46.3729 66.4507 45.5727 68.8647C44.7726 71.2787 43.4433 73.4835 41.682 75.3181ZM64.423 65.1996L54.2498 75.3728V66.9447L64.423 56.7715V65.1996ZM65.9882 51.8962L64.7674 53.117L64.7282 53.1561L53.076 64.7927L36.7362 48.4529L48.4041 36.785L48.4433 36.7459L49.664 35.5408C55.9869 29.1564 64.4002 25.2665 73.3598 24.585C73.8413 24.5418 74.3264 24.6049 74.7809 24.7697C75.2353 24.9346 75.648 25.1972 75.9899 25.539C76.3317 25.8809 76.5943 26.2936 76.7592 26.748C76.924 27.2025 76.9871 27.6876 76.9439 28.1691C76.2624 37.1287 72.3725 45.542 65.9882 51.8649V51.8962Z" fill="#586927"/>
<path d="M61.6814 33.189C59.9615 33.1899 58.2951 33.7871 56.9661 34.8789C55.6372 35.9707 54.7279 37.4894 54.3931 39.1765C54.0584 40.8635 54.319 42.6144 55.1305 44.1308C55.9419 45.6473 57.2541 46.8355 58.8434 47.4929C60.4326 48.1504 62.2007 48.2365 63.8464 47.7365C65.492 47.2365 66.9134 46.1815 67.8683 44.751C68.8233 43.3206 69.2527 41.6033 69.0835 39.8917C68.9142 38.1802 68.1568 36.5802 66.9401 35.3645C66.251 34.6722 65.4313 34.1235 64.5287 33.75C63.626 33.3766 62.6582 33.1859 61.6814 33.189ZM65.2811 44.223C64.4497 45.0558 63.3553 45.5746 62.1844 45.6909C61.0134 45.8073 59.8383 45.514 58.8593 44.8612C57.8803 44.2083 57.1579 43.2362 56.8152 42.1105C56.4725 40.9847 56.5308 39.775 56.98 38.6874C57.4293 37.5998 58.2417 36.7015 59.2789 36.1457C60.3161 35.59 61.5139 35.411 62.6683 35.6393C63.8227 35.8676 64.8622 36.4891 65.6097 37.3979C66.3573 38.3067 66.7666 39.4465 66.768 40.6233C66.7705 41.2918 66.6404 41.9542 66.3851 42.5721C66.1299 43.19 65.7547 43.7511 65.2811 44.223Z" fill="#586927"/>
</svg>
