<svg width="100" height="100" viewBox="0 0 100 100" fill="none" xmlns="http://www.w3.org/2000/svg">
<circle cx="50" cy="50" r="50" fill="#B4C486"/>
<path fill-rule="evenodd" clip-rule="evenodd" d="M64.2549 16.7459C64.7943 17.0598 64.9792 17.755 64.6677 18.2987L62.9901 21.2271C62.6786 21.7708 61.9888 21.9571 61.4493 21.6432C60.9098 21.3293 60.725 20.6341 61.0364 20.0904L62.7141 17.162C63.0256 16.6183 63.7154 16.432 64.2549 16.7459Z" fill="#586927"/>
<path fill-rule="evenodd" clip-rule="evenodd" d="M32.9984 16.7459C32.4589 17.0598 32.274 17.755 32.5855 18.2987L34.2632 21.2271C34.5746 21.7708 35.2645 21.9571 35.8039 21.6432C36.3434 21.3293 36.5282 20.6341 36.2168 20.0904L34.5391 17.162C34.2277 16.6183 33.5378 16.432 32.9984 16.7459Z" fill="#586927"/>
<path fill-rule="evenodd" clip-rule="evenodd" d="M48.6612 10C49.2841 10 49.7891 10.5089 49.7891 11.1367V18.2379C49.7891 18.8657 49.2841 19.3746 48.6612 19.3746C48.0382 19.3746 47.5333 18.8657 47.5333 18.2379V11.1367C47.5333 10.5089 48.0382 10 48.6612 10Z" fill="#586927"/>
<path fill-rule="evenodd" clip-rule="evenodd" d="M17.3304 22.8445C17.7708 22.4006 18.485 22.4006 18.9255 22.8445L23.9079 27.8657C24.3483 28.3097 24.3483 29.0294 23.9079 29.4733C23.4674 29.9172 22.7532 29.9172 22.3127 29.4733L17.3304 24.4521C16.8899 24.0081 16.8899 23.2884 17.3304 22.8445Z" fill="#586927"/>
<path fill-rule="evenodd" clip-rule="evenodd" d="M79.606 22.8445C79.1655 22.4006 78.4514 22.4006 78.0109 22.8445L73.0285 27.8657C72.588 28.3097 72.588 29.0294 73.0285 29.4733C73.469 29.9172 74.1831 29.9172 74.6236 29.4733L79.606 24.4521C80.0465 24.0081 80.0465 23.2884 79.606 22.8445Z" fill="#586927"/>
<path fill-rule="evenodd" clip-rule="evenodd" d="M77.5637 61.0877C80.0412 63.2973 82 66.5018 82 71.0135C82 77.0914 79.706 80.8258 77.019 83.0483C74.383 85.2287 71.4686 85.8755 70.2566 86.0078C69.3118 86.1109 66.1403 86.1265 62.8196 86.1145C59.4514 86.1024 55.8056 86.0602 53.8252 86.0346C53.6354 86.0322 53.4799 86.1862 53.4799 86.3788C53.4799 88.7094 50.6841 89.8765 49.0489 88.2286L42.2164 81.3428C41.1886 80.307 41.1886 78.6276 42.2164 77.5918L49.0002 70.7551C50.6533 69.089 53.4799 70.269 53.4799 72.6251C53.4799 72.8249 53.6326 72.9807 53.8202 72.9892C55.7071 73.0747 59.1834 73.215 62.4368 73.2553C64.0647 73.2755 65.6246 73.2705 66.8965 73.2222C68.2241 73.1717 69.0889 73.0769 69.4302 72.9707C69.8364 72.8443 70.4144 72.4971 70.9595 71.9374C71.4962 71.3864 71.9323 70.6994 72.1348 69.9636C72.3319 69.2473 72.3153 68.4661 71.93 67.6457C71.5372 66.8093 70.7201 65.8475 69.1681 64.8767L70.3577 62.9451C72.1649 64.0754 73.3405 65.335 73.969 66.6731C74.605 68.0273 74.6381 69.3738 74.3086 70.5712C73.9844 71.7493 73.3173 72.7621 72.5694 73.53C71.8299 74.2892 70.9418 74.8797 70.0956 75.143C69.4215 75.3527 68.2522 75.4457 66.9815 75.494C65.6553 75.5444 64.0529 75.549 62.4091 75.5286C59.119 75.4878 55.614 75.3462 53.7189 75.2604C52.3156 75.1968 51.2241 74.0302 51.2241 72.6251C51.2241 72.2944 50.8273 72.1288 50.5953 72.3626L43.8115 79.1993C43.6647 79.3473 43.6647 79.5872 43.8115 79.7352L50.644 86.621C50.8581 86.8367 51.2241 86.6839 51.2241 86.3788C51.2241 84.9205 52.4059 83.7426 53.8542 83.7614C55.8324 83.7869 59.47 83.829 62.8277 83.8411C66.2329 83.8533 69.2298 83.8331 70.0136 83.7475C70.9344 83.647 73.3884 83.1102 75.5878 81.291C77.7361 79.514 79.7442 76.4327 79.7442 71.0135C79.7442 67.2584 78.1467 64.6435 76.0687 62.7901C73.9601 60.9094 71.3533 59.8167 69.4305 59.2192L70.0952 57.0467C72.1691 57.6912 75.1169 58.9053 77.5637 61.0877Z" fill="#586927"/>
<path fill-rule="evenodd" clip-rule="evenodd" d="M32.7699 65.2648C32.7699 64.637 33.2749 64.1281 33.8978 64.1281H40.2729C40.8959 64.1281 41.4008 64.637 41.4008 65.2648C41.4008 65.8926 40.8959 66.4016 40.2729 66.4016H33.8978C33.2749 66.4016 32.7699 65.8926 32.7699 65.2648ZM32.7699 70.6752C32.7699 70.0474 33.2749 69.5385 33.8978 69.5385H42.9572C43.5801 69.5385 44.0851 70.0474 44.0851 70.6752C44.0851 71.303 43.5801 71.812 42.9572 71.812H33.8978C33.2749 71.812 32.7699 71.303 32.7699 70.6752Z" fill="#586927"/>
<path fill-rule="evenodd" clip-rule="evenodd" d="M26.3948 38.714C26.3948 37.2492 27.5732 36.0617 29.0267 36.0617H68.2957C69.7492 36.0617 70.9275 37.2492 70.9275 38.714V74.0567H68.6717V38.714C68.6717 38.5048 68.5033 38.3351 68.2957 38.3351H29.0267C28.819 38.3351 28.6507 38.5048 28.6507 38.714V78.2896C28.6507 78.4989 28.819 78.6685 29.0267 78.6685H42.2861V80.942H29.0267C27.5732 80.942 26.3948 79.7545 26.3948 78.2896V38.714Z" fill="#586927"/>
<path fill-rule="evenodd" clip-rule="evenodd" d="M45.213 39.4719V45.1972L47.4697 44.1864C48.4419 43.7509 49.5515 43.7509 50.5237 44.1864L52.7804 45.1972V39.4719H45.213ZM44.4611 37.1984C43.6305 37.1984 42.9572 37.877 42.9572 38.714V46.3633C42.9572 47.4601 44.0773 48.1937 45.0718 47.7483L48.3859 46.2639C48.7748 46.0897 49.2186 46.0897 49.6075 46.2639L52.9216 47.7483C53.9161 48.1938 55.0362 47.4601 55.0362 46.3633V38.714C55.0362 37.877 54.3629 37.1984 53.5324 37.1984H44.4611Z" fill="#586927"/>
</svg>
