<svg width="548" height="575" viewBox="0 0 548 575" fill="none" xmlns="http://www.w3.org/2000/svg">
<mask id="mask0" mask-type="alpha" maskUnits="userSpaceOnUse" x="0" y="0" width="548" height="575">
<rect width="548" height="575" fill="#77D2FF"/>
<rect width="548" height="575" fill="url(#paint0_linear)"/>
</mask>
<g mask="url(#mask0)">
<path d="M537.328 756.96C530.645 756.96 523.962 754.904 518.307 750.791L458.157 708.635C450.96 703.494 446.333 696.297 444.791 687.557C443.249 678.817 445.305 670.078 450.446 662.88L531.673 547.723C537.842 538.983 548.124 533.842 558.92 533.842C565.604 533.842 572.287 535.899 577.942 540.011L638.091 582.167C645.289 587.308 649.915 594.506 651.458 603.245C653 611.985 650.944 620.725 645.803 627.922L564.575 743.08C558.406 751.819 548.124 756.96 537.328 756.96ZM558.406 533.842C547.61 533.842 537.842 538.983 531.673 547.723L450.446 663.395C445.305 670.592 443.763 679.332 445.305 687.557C446.847 696.297 451.474 703.494 458.672 708.635L518.821 750.791C524.476 754.39 530.645 756.446 537.328 756.446C548.124 756.446 557.892 751.305 564.061 742.565L645.289 626.894C650.43 619.696 651.972 610.957 650.43 602.731C648.887 593.992 644.26 586.794 637.063 581.653L576.914 539.497C571.773 535.899 565.09 533.842 558.406 533.842Z" fill="#E0E6CC" stroke="#BEEF96" stroke-opacity="0.42" stroke-width="1.5"/>
<path d="M535.786 671.105C525.504 671.105 515.736 666.479 509.567 658.253L465.355 599.646C454.559 585.251 457.129 564.687 472.038 553.377L584.625 468.551C590.28 464.439 597.478 461.868 604.675 461.868C614.957 461.868 624.725 466.495 630.894 474.721L675.106 533.328C680.247 540.525 682.818 549.265 681.275 557.49C680.247 566.23 675.62 573.941 668.423 579.082L555.836 664.936C550.181 669.049 542.983 671.105 535.786 671.105ZM604.675 462.382C597.478 462.382 590.794 464.439 585.139 469.065L472.552 553.891C458.158 564.687 455.587 585.251 466.383 599.132L510.595 657.739C516.764 665.964 526.018 670.591 536.814 670.591C544.012 670.591 550.695 668.535 556.35 663.908L668.937 579.082C675.62 573.941 680.247 566.23 681.79 557.49C682.818 548.75 680.761 540.525 675.62 533.328L631.408 474.721C624.211 467.009 614.957 462.382 604.675 462.382Z" fill="#E0E6CC" stroke="#BEEF96" stroke-opacity="0.42" stroke-width="1.5"/>
<path d="M536.814 736.911C522.419 736.911 509.567 727.657 505.454 713.777L463.812 578.569C458.671 561.09 468.439 542.582 485.404 537.441L555.322 515.849C558.406 514.821 561.491 514.307 565.089 514.307C579.484 514.307 592.337 523.561 596.449 537.441L638.091 672.649C640.662 680.874 639.633 690.128 635.521 697.84C631.408 705.551 624.725 711.206 615.985 713.777L546.068 735.369C543.497 736.397 539.899 736.911 536.814 736.911ZM565.604 514.821C562.519 514.821 558.92 515.335 555.836 516.364L485.919 537.956C468.953 543.097 459.186 561.604 464.327 578.569L505.968 713.777C510.081 727.657 522.419 736.911 536.814 736.911C539.899 736.911 543.497 736.397 546.582 735.369L616.499 713.777C624.725 711.206 631.408 705.551 635.521 697.84C639.633 690.128 640.662 681.388 638.091 673.163L596.449 537.956C592.337 524.075 579.998 514.821 565.604 514.821Z" fill="#E0E6CC" stroke="#BEEF96" stroke-opacity="0.42" stroke-width="1.5"/>
<path d="M560.977 589.365C547.096 589.365 534.244 580.625 529.617 567.259L505.968 497.856C499.799 480.89 509.053 461.869 526.532 456.214L660.197 409.945C663.796 408.917 667.395 407.889 670.993 407.889C684.874 407.889 697.726 416.628 702.353 429.995L726.002 499.398C729.086 507.623 728.572 516.877 724.459 524.589C720.861 532.3 713.663 538.469 705.438 541.04L571.773 587.308C568.174 588.851 564.575 589.365 560.977 589.365ZM670.479 408.403C666.881 408.403 663.282 408.917 659.683 409.945L526.018 456.214C517.793 459.298 511.109 464.953 507.511 472.665C503.912 480.376 503.398 489.116 505.968 497.341L529.617 566.744C534.244 580.111 546.582 588.851 560.463 588.851C564.061 588.851 567.66 588.337 571.259 587.308L704.924 541.04C713.149 537.955 719.833 532.3 723.431 524.589C727.03 516.877 727.544 508.137 724.974 499.912L701.325 430.509C696.698 417.142 684.36 408.403 670.479 408.403Z" fill="#E0E6CC" stroke="#BEEF96" stroke-opacity="0.42" stroke-width="1.5"/>
<path d="M614.957 653.113H614.443L541.441 652.085C523.448 651.571 508.539 636.662 509.053 618.669L511.623 477.292C511.623 468.553 515.222 460.327 521.391 454.158C527.56 447.989 535.786 444.904 544.526 444.904H545.04L618.041 445.932C626.781 445.932 635.007 449.531 641.176 456.214C647.345 462.384 650.429 470.609 650.429 479.863L647.859 621.239C647.859 629.979 644.26 638.205 638.091 644.374C631.922 649.515 623.696 653.113 614.957 653.113ZM544.011 444.904C526.532 444.904 511.623 459.299 511.623 476.778L509.053 618.155C508.539 636.148 522.933 651.057 540.927 651.057L613.929 652.085H614.443C631.922 652.085 646.831 637.691 646.831 620.211L649.401 478.835C649.401 470.095 646.317 461.869 640.148 455.7C633.978 449.531 626.267 445.932 617.527 445.932L544.526 444.904H544.011Z" fill="#E0E6CC" stroke="#BEEF96" stroke-opacity="0.42" stroke-width="1.5"/>
<path d="M641.69 596.05C638.091 596.05 634.493 595.536 630.894 594.507L561.491 570.859C544.526 565.204 535.272 546.182 540.927 529.217L586.682 395.552C591.309 382.185 603.647 373.446 618.042 373.446C621.64 373.446 625.239 373.96 628.838 374.988L698.241 398.637C715.206 404.292 724.46 423.313 718.805 440.278L673.05 573.943C668.423 587.31 655.571 596.05 641.69 596.05ZM618.042 373.446C604.161 373.446 591.823 382.185 587.196 395.552L541.441 529.217C535.786 546.182 544.526 564.69 561.491 570.345L630.894 593.993C634.493 595.021 638.091 595.536 641.69 595.536C655.571 595.536 667.909 586.796 672.536 573.429L718.291 439.764C723.946 422.799 715.206 404.292 698.241 398.637L628.838 374.988C625.239 373.96 621.64 373.446 618.042 373.446Z" fill="#E0E6CC" stroke="#BEEF96" stroke-opacity="0.42" stroke-width="1.5"/>
<path d="M300.02 898.472C290.252 898.472 280.484 896.416 271.23 891.789L139.621 827.527C107.233 811.59 93.3527 772.519 109.29 739.616L233.187 485.653C238.842 474.343 247.068 465.089 257.864 458.406C268.146 452.236 279.97 448.638 292.308 448.638C302.076 448.638 311.844 450.694 321.097 455.321L452.706 519.583C468.643 527.294 480.467 540.661 486.123 557.112C491.778 573.563 490.749 591.557 483.038 607.494L359.141 861.457C353.486 872.767 345.26 882.021 334.464 888.704C324.182 894.874 312.358 898.472 300.02 898.472ZM292.308 449.152C267.117 449.152 244.497 463.032 233.701 485.653L109.804 740.13C93.8668 772.519 107.747 811.59 139.621 827.527L271.23 891.789C279.97 896.416 289.738 898.472 299.505 898.472C324.696 898.472 347.316 884.592 358.112 861.971L482.524 606.979C490.235 591.557 491.263 573.563 485.608 557.112C479.953 540.661 468.129 527.294 452.706 519.583L321.097 455.321C311.844 451.722 302.076 449.152 292.308 449.152Z" fill="#E0E6CC" stroke="#BEEF96" stroke-opacity="0.42"/>
<path d="M270.202 729.334C253.237 729.334 236.786 722.651 224.447 710.827L119.057 609.035C92.8386 583.845 92.3245 542.203 117.515 515.984L313.9 312.402C326.238 299.549 343.204 292.352 361.197 292.352C378.162 292.352 394.613 299.035 406.952 310.86L512.341 412.651C525.194 424.989 531.877 440.926 532.391 458.919C532.905 476.399 526.222 492.85 513.884 505.702L317.499 709.284C304.646 722.137 288.195 729.334 270.202 729.334ZM360.683 293.38C342.689 293.38 326.238 300.578 313.9 313.43L117.515 516.498C92.3245 542.203 93.3526 583.845 119.057 608.521L224.447 710.313C236.786 722.137 252.723 728.82 269.688 728.82C287.681 728.82 304.132 721.623 316.471 708.77L512.855 505.188C525.194 492.85 531.363 476.399 531.363 458.919C530.849 441.44 524.166 425.503 511.313 413.165L405.923 311.374C394.099 300.063 377.648 293.38 360.683 293.38Z" fill="#E0E6CC" stroke="#BEEF96" stroke-opacity="0.42"/>
<path d="M292.308 858.373C279.969 858.373 268.145 854.774 257.863 848.605C247.067 841.922 238.842 832.668 233.187 821.358L109.289 567.909C93.3524 535.521 106.719 495.935 139.621 479.998L271.23 415.736C280.484 411.109 289.737 409.053 300.019 409.053C312.358 409.053 324.182 412.651 334.464 418.821C345.26 425.504 353.485 434.758 359.14 446.068L483.038 699.517C490.749 715.454 491.777 732.934 486.122 749.899C480.467 766.35 468.643 779.716 452.706 787.428L321.097 851.69C311.843 856.317 302.59 858.373 292.308 858.373ZM300.019 409.567C290.251 409.567 280.484 411.623 271.23 416.25L139.621 480.512C107.233 496.449 93.8665 535.521 109.803 567.909L233.701 821.872C244.497 844.493 267.117 858.373 292.308 858.373C302.076 858.373 311.843 856.317 321.097 851.69L452.706 786.914C468.129 779.202 479.953 765.836 485.608 749.385C491.263 732.934 490.235 715.454 482.523 699.517L358.626 446.068C347.316 423.447 325.21 409.567 300.019 409.567Z" fill="#E0E6CC" stroke="#BEEF96" stroke-opacity="0.42"/>
<path d="M293.85 559.169C269.687 559.169 247.067 545.803 235.757 524.211L166.868 395.172C149.903 363.298 162.241 323.199 194.115 306.234L443.452 173.597C452.706 168.456 463.502 165.885 474.298 165.885C498.46 165.885 521.081 179.252 532.391 200.844L601.28 330.396C609.505 345.819 611.047 363.812 605.906 380.264C600.766 397.229 589.455 410.595 574.033 418.821L324.696 551.458C314.928 556.599 304.646 559.169 293.85 559.169ZM474.298 166.399C463.502 166.399 453.22 168.97 443.966 174.111L194.115 306.748C162.241 323.713 150.417 363.298 167.382 395.172L236.271 524.725C247.581 545.803 269.687 559.169 293.85 559.169C304.646 559.169 314.928 556.599 324.182 551.458L573.518 418.821C588.941 410.595 600.251 396.715 605.392 380.264C610.533 363.812 608.991 345.819 600.766 330.396L531.877 200.844C520.566 179.252 498.46 166.399 474.298 166.399Z" fill="#E0E6CC" stroke="#BEEF96" stroke-opacity="0.42"/>
<path d="M274.829 688.721C259.406 688.721 243.983 683.066 232.159 672.784C220.335 662.502 212.109 648.107 210.053 632.17L170.467 352.501C165.326 316.515 190.517 283.612 226.504 278.472L371.479 257.908C374.564 257.394 377.648 257.394 380.733 257.394C396.156 257.394 411.578 263.049 423.403 273.331C435.227 283.612 443.452 298.007 445.509 313.944L485.094 593.613C487.665 611.092 483.038 628.057 472.756 642.452C461.96 656.332 447.051 665.586 429.572 668.157L284.597 688.721C280.998 688.721 277.913 688.721 274.829 688.721ZM380.733 257.908C377.648 257.908 374.564 257.908 371.479 258.422L226.504 278.986C191.031 284.127 165.84 317.029 170.981 352.501L210.567 632.17C215.194 664.044 242.955 688.207 274.829 688.207C277.913 688.207 280.998 688.206 284.083 687.692L429.058 667.129C446.537 664.558 461.446 655.818 472.242 641.938C482.524 628.057 487.151 611.092 484.58 593.613L444.995 313.944C440.368 282.07 412.607 257.908 380.733 257.908Z" fill="#E0E6CC" stroke="#BEEF96" stroke-opacity="0.42"/>
<path d="M368.908 404.939C337.034 404.939 309.787 382.319 304.132 350.959L278.941 205.984C272.772 170.511 296.421 136.067 332.407 129.898L610.534 80.5443C614.132 80.0302 618.245 79.5161 621.844 79.5161C653.718 79.5161 680.965 102.136 686.62 133.496L712.325 277.957C715.409 295.437 711.297 312.402 701.529 326.797C691.247 341.191 676.338 350.959 659.373 354.044L381.247 403.397C376.62 404.425 372.507 404.939 368.908 404.939ZM621.844 80.5443C618.245 80.5443 614.132 81.0584 610.534 81.5725L332.407 130.926C296.421 136.581 272.772 170.511 278.941 205.984L304.646 350.445C310.301 381.805 337.034 404.425 368.908 404.425C372.507 404.425 376.62 403.911 380.218 403.397L658.345 354.044C675.31 350.959 690.219 341.705 700.501 327.311C710.268 312.916 714.381 295.951 711.297 278.471L685.592 134.01C680.451 103.165 653.204 80.5443 621.844 80.5443Z" fill="#E0E6CC" stroke="#BEEF96" stroke-opacity="0.42"/>
<path d="M455.277 547.859C451.678 547.859 447.565 547.345 443.966 546.831L299.505 521.126C264.033 514.957 239.87 481.026 246.039 445.039L294.878 166.913C300.533 135.553 327.781 112.419 359.655 112.419C363.253 112.419 367.366 112.933 370.965 113.447L515.426 139.152C532.905 142.237 547.814 152.004 557.582 165.885C567.864 180.28 571.462 197.759 568.378 214.724L519.539 492.85C514.398 524.724 487.151 547.859 455.277 547.859ZM359.655 112.933C327.781 112.933 301.048 135.553 295.393 166.913L246.553 445.039C240.384 480.512 264.033 514.442 299.505 520.612L443.966 545.802C447.565 546.316 451.678 546.831 455.277 546.831C487.151 546.831 513.884 524.21 519.539 492.85L568.378 214.724C571.462 197.759 567.35 180.28 557.582 165.885C547.814 151.49 532.391 142.237 515.426 139.152L370.965 113.961C367.366 113.447 363.253 112.933 359.655 112.933Z" fill="#E0E6CC" stroke="#BEEF96" stroke-opacity="0.42"/>
<path d="M767.847 320.113C764.763 320.113 761.678 320.113 758.594 319.599L478.925 280.528C461.446 277.957 446.023 269.217 435.741 254.823C424.945 240.942 420.832 223.463 423.403 205.984L443.966 61.0084C446.023 45.0714 454.248 30.6767 466.073 20.3948C477.897 10.1128 493.32 4.45776 508.743 4.45776C511.827 4.45776 514.912 4.45776 517.996 4.97186L797.665 44.0432C833.652 49.1842 858.328 82.0864 853.702 118.073L833.138 263.048C831.081 278.985 822.856 293.38 811.031 303.662C798.693 314.458 783.784 320.113 767.847 320.113ZM508.229 4.97186C475.84 4.97186 448.079 29.1344 443.966 61.0084L423.403 205.984C420.832 223.463 425.459 240.428 435.741 254.309C446.023 268.189 461.446 277.443 478.925 279.499L758.594 318.571C761.678 319.085 764.763 319.085 767.847 319.085C800.236 319.085 827.997 294.922 832.109 263.048L852.673 118.073C857.814 82.6005 832.624 49.6983 797.151 44.5573L517.482 5.48596C514.398 5.48596 511.313 4.97186 508.229 4.97186Z" fill="#E0E6CC" stroke="#BEEF96" stroke-opacity="0.42"/>
<path d="M525.708 443.497C514.912 443.497 504.63 440.926 494.862 435.785L365.824 367.41C333.95 350.445 321.611 310.86 338.577 278.472L471.213 28.6207C482.524 7.02862 504.63 -6.33789 529.306 -6.33789C540.102 -6.33789 550.384 -3.76741 560.152 1.37356L689.704 70.2625C705.127 78.4881 716.437 92.3686 721.578 108.82C726.719 125.785 725.177 143.264 716.952 158.687L583.801 408.538C572.49 430.13 550.384 443.497 525.708 443.497ZM529.306 -5.3097C505.144 -5.3097 483.038 8.05682 471.728 29.1348L339.091 278.986C322.125 310.86 334.464 350.445 366.338 366.896L495.89 435.785C505.144 440.926 515.94 443.497 526.222 443.497C550.384 443.497 572.49 430.13 583.801 409.052L715.923 159.201C724.149 143.778 725.691 126.299 720.55 109.334C715.409 92.8828 704.099 79.0022 688.676 70.7766L559.638 1.88766C550.384 -2.73921 539.588 -5.3097 529.306 -5.3097Z" fill="#E0E6CC" stroke="#BEEF96" stroke-opacity="0.42"/>
<path d="M625.443 366.382C607.449 366.382 590.484 359.185 578.146 346.332L476.355 241.457C464.016 228.604 457.847 212.153 457.847 194.674C458.361 177.194 465.044 160.743 477.897 148.405L680.965 -47.9798C693.303 -59.804 709.24 -66.4873 726.72 -66.4873C744.713 -66.4873 761.678 -59.29 774.017 -46.4375L875.808 58.9522C888.146 71.8047 894.315 88.2558 894.315 105.735C893.801 123.214 887.118 139.665 874.265 152.004L671.197 348.389C658.859 360.213 642.408 366.382 625.443 366.382ZM726.72 -65.9732C709.754 -65.9732 693.817 -59.29 681.479 -47.4657L478.411 148.919C466.073 161.257 458.875 177.194 458.361 194.674C457.847 212.153 464.53 228.604 476.869 240.942L578.66 346.332C590.998 359.185 607.449 366.382 625.443 366.382C642.408 366.382 658.345 359.699 670.683 347.875L873.751 151.49C886.09 139.151 893.287 123.214 893.801 105.735C894.315 88.2558 887.632 71.8047 875.294 59.4663L773.502 -45.9234C761.164 -58.7759 744.713 -65.9732 726.72 -65.9732Z" fill="#E0E6CC" stroke="#BEEF96" stroke-opacity="0.42"/>
</g>
<defs>
<linearGradient id="paint0_linear" x1="274" y1="408.501" x2="274" y2="701.605" gradientUnits="userSpaceOnUse">
<stop offset="0.411458" stop-color="white" stop-opacity="0"/>
<stop offset="1" stop-color="white"/>
</linearGradient>
</defs>
</svg>
