<svg width="386" height="402" viewBox="0 0 386 402" fill="none" xmlns="http://www.w3.org/2000/svg">
<mask id="mask0" mask-type="alpha" maskUnits="userSpaceOnUse" x="0" y="0" width="386" height="402">
<rect width="386" height="402" fill="#77D2FF"/>
<rect width="386" height="402" fill="url(#paint0_linear)"/>
</mask>
<g mask="url(#mask0)">
<path d="M123.723 191.276C121.971 191.276 120.219 191.026 118.467 190.526L84.6815 179.013C76.4228 176.261 71.918 167.001 74.6709 158.742L96.9445 93.673C99.1969 87.1661 105.203 82.9116 112.211 82.9116C113.963 82.9116 115.714 83.1619 117.466 83.6624L151.252 95.1746C159.511 97.9275 164.016 107.187 161.263 115.446L138.989 180.515C136.737 187.022 130.48 191.276 123.723 191.276ZM112.211 82.9116C105.454 82.9116 99.4472 87.1661 97.1948 93.673L74.9212 158.742C72.1683 167.001 76.4228 176.01 84.6815 178.763L118.467 190.275C120.219 190.776 121.971 191.026 123.723 191.026C130.48 191.026 136.486 186.772 138.739 180.265L161.012 115.196C163.765 106.937 159.511 97.9275 151.252 95.1746L117.466 83.6624C115.714 83.1619 113.963 82.9116 112.211 82.9116Z" stroke="#BEEF96" stroke-opacity="0.42" stroke-width="1.5"/>
<path d="M83.9305 211.548C82.4289 211.548 80.6771 211.298 79.1755 210.797L13.3558 190.776C4.84679 188.274 0.0917465 179.264 2.5944 170.755L13.1055 136.719C15.1076 129.962 21.3643 125.457 28.3717 125.457C29.8733 125.457 31.6251 125.707 33.1267 126.208L98.9464 146.229C102.951 147.48 106.454 150.233 108.457 153.987C110.459 157.741 110.959 161.996 109.708 166.25L99.1967 200.286C97.1946 207.043 90.938 211.548 83.9305 211.548ZM28.3717 125.707C21.3643 125.707 15.3579 130.212 13.3558 136.969L2.84468 171.005C0.342027 179.264 5.09705 188.274 13.3558 190.776L79.1755 210.797C80.6771 211.298 82.1787 211.548 83.6803 211.548C90.6877 211.548 96.694 207.043 98.6962 200.286L109.207 166.25C110.459 162.246 109.958 157.991 107.956 154.238C105.954 150.484 102.7 147.731 98.6962 146.479L32.8765 126.458C31.6252 125.707 30.1236 125.707 28.3717 125.707Z" stroke="#BEEF96" stroke-opacity="0.42" stroke-width="1.5"/>
<path d="M78.4247 213.3C74.921 213.3 71.6676 212.299 68.9146 210.047L40.3844 188.524C36.8807 186.021 34.6283 182.267 34.1278 178.013C33.6273 173.758 34.6283 169.504 37.131 166.25L78.4247 111.192C81.4279 107.188 86.1829 104.685 91.1882 104.685C94.6919 104.685 97.9454 105.686 100.698 107.939L129.229 129.461C136.236 134.717 137.738 144.727 132.482 151.985L91.1882 207.043C88.185 211.048 83.6803 213.3 78.4247 213.3ZM91.4385 105.186C86.4332 105.186 81.6782 107.438 78.675 111.442L37.3812 166.501C34.8786 169.754 33.8775 174.009 34.3781 178.263C34.8786 182.518 37.131 186.021 40.6347 188.774L69.1649 210.297C71.9178 212.299 75.1713 213.55 78.675 213.55C83.6803 213.55 88.4353 211.298 91.4385 207.294L132.732 152.235C137.988 145.228 136.486 135.217 129.479 130.212L100.949 108.689C97.9454 106.187 94.692 105.186 91.4385 105.186Z" stroke="#BEEF96" stroke-opacity="0.42" stroke-width="1.5"/>
<path d="M34.378 220.308C31.1246 220.308 27.8712 219.307 25.1182 217.305L-31.1914 178.013C-38.4491 173.008 -40.2009 162.997 -35.1956 155.739L-14.6739 126.458C-11.6707 122.204 -6.66543 119.701 -1.40986 119.701C1.84359 119.701 5.09704 120.702 7.84996 122.704L64.1596 162.246C67.6633 164.749 69.9157 168.253 70.6665 172.507C71.4173 176.762 70.4162 181.016 67.9136 184.52L47.3918 213.801C44.3886 217.805 39.6336 220.308 34.378 220.308ZM-1.66012 119.951C-6.91569 119.951 -11.6707 122.454 -14.6739 126.709L-35.1956 155.99C-40.2009 163.247 -38.4491 173.008 -31.1914 178.013L25.1182 217.555C27.8712 219.307 30.8743 220.308 34.1278 220.308C39.3834 220.308 44.1384 217.805 47.1416 213.551L67.6633 184.27C70.166 180.766 70.9167 176.511 70.166 172.507C69.4152 168.253 67.1628 164.749 63.659 162.246L7.3494 122.704C4.84675 120.953 1.59333 119.951 -1.66012 119.951Z" stroke="#BEEF96" stroke-opacity="0.42" stroke-width="1.5"/>
<path d="M28.6221 220.308C23.3665 220.308 18.3612 217.805 15.6083 213.55L-4.9134 184.269C-7.41605 180.766 -8.4171 176.511 -7.66631 172.257C-6.91551 168.002 -4.66313 164.248 -1.15942 161.996L55.1502 122.454C57.9031 120.452 61.1566 119.451 64.41 119.451C69.6656 119.451 74.6709 121.953 77.4238 126.208L97.9456 155.489C102.951 162.747 101.199 172.757 93.9413 177.762L37.6317 217.304C35.129 219.306 31.8756 220.308 28.6221 220.308ZM64.41 119.951C61.1566 119.951 57.9031 120.952 55.4005 122.704L-0.909159 162.246C-4.41287 164.749 -6.66525 168.252 -7.41605 172.507C-8.16684 176.761 -7.16579 180.766 -4.66313 184.269L15.8586 213.55C18.8618 217.805 23.6168 220.308 28.8724 220.308C32.1258 220.308 35.3793 219.306 37.8819 217.555L94.1916 178.013C101.449 173.007 102.951 162.997 97.9456 155.989L77.4238 126.708C74.4206 122.454 69.6656 119.951 64.41 119.951Z" stroke="#BEEF96" stroke-opacity="0.42" stroke-width="1.5"/>
<path d="M-15.4246 213.55C-20.4299 213.55 -25.185 211.297 -28.1881 207.293L-69.4819 152.485C-74.7374 145.478 -73.4861 135.467 -66.2284 129.961L-37.6982 108.438C-34.9453 106.436 -31.4416 105.185 -27.9379 105.185C-22.9326 105.185 -18.1775 107.437 -15.1743 111.442L26.1194 166.25C28.622 169.753 29.8734 174.008 29.1226 178.012C28.6221 182.267 26.3697 186.021 22.866 188.523L-5.66428 210.046C-8.66747 212.298 -11.9209 213.55 -15.4246 213.55ZM-28.4384 105.185C-31.9421 105.185 -35.1955 106.186 -37.9485 108.438L-66.4787 129.961C-73.4861 135.217 -74.7374 145.227 -69.4819 152.235L-28.1881 207.043C-25.185 211.047 -20.6802 213.3 -15.4246 213.3C-11.9209 213.3 -8.66746 212.298 -5.91455 210.046L22.6157 188.523C25.8691 186.021 28.1215 182.267 28.8723 178.012C29.3728 173.758 28.3718 169.753 25.8691 166.25L-15.4246 111.442C-18.9283 107.437 -23.4331 105.185 -28.4384 105.185Z" stroke="#BEEF96" stroke-opacity="0.42" stroke-width="1.5"/>
<path d="M-20.9306 211.798C-27.9381 211.798 -34.1947 207.294 -36.1968 200.537L-46.7079 166.501C-47.9592 162.496 -47.4587 157.991 -45.4566 154.238C-43.4545 150.484 -40.201 147.731 -35.9465 146.479L29.8732 126.208C31.3748 125.707 32.8764 125.457 34.6282 125.457C41.6356 125.457 47.8922 129.962 49.8944 136.719L60.4055 170.755C62.9082 179.264 58.1531 188.274 49.8944 190.776L-15.9253 211.048C-17.6772 211.548 -19.1788 211.798 -20.9306 211.798ZM34.3779 125.707C32.8764 125.707 31.1245 125.958 29.6229 126.458L-36.1968 146.73C-40.201 147.981 -43.4545 150.734 -45.4566 154.488C-47.4587 158.242 -47.9592 162.496 -46.7079 166.501L-36.1968 200.537C-34.1947 207.294 -28.1883 211.798 -21.1809 211.798C-19.6793 211.798 -17.9274 211.548 -16.4259 211.048L49.3938 190.776C57.6526 188.274 62.4076 179.264 59.905 171.005L49.3938 136.969C47.3917 129.962 41.3854 125.707 34.3779 125.707Z" stroke="#BEEF96" stroke-opacity="0.42" stroke-width="1.5"/>
<path d="M-64.7269 120.701C-73.236 120.701 -80.4936 127.709 -80.4936 136.218L-81.2444 171.755C-81.4947 180.515 -74.4873 187.772 -65.728 187.772L3.09489 189.024H3.34517C11.8542 189.024 19.1119 182.016 19.1119 173.507L19.6124 137.969C19.8627 129.21 12.8552 121.953 4.09597 121.953L-64.7269 120.701ZM-64.7269 120.701C-64.4767 120.701 -64.7269 120.701 -64.7269 120.701ZM3.34517 189.274H3.09489L-65.728 188.022C-74.4873 187.772 -81.745 180.515 -81.4947 171.755L-80.9942 136.218C-80.9942 131.963 -79.2423 127.959 -76.2391 124.956C-73.2359 121.952 -68.9814 120.201 -64.7269 120.451L4.09597 121.702C12.8552 121.952 20.1129 129.21 19.8626 137.969L19.3621 173.507C19.3621 177.762 17.6103 181.766 14.6071 184.769C11.6039 187.522 7.59968 189.274 3.34517 189.274Z" stroke="#BEEF96" stroke-opacity="0.42" stroke-width="1.5"/>
<path d="M112.21 4.57965C105.453 4.57965 99.1966 0.325131 96.9442 -6.18176L74.6706 -71.2507C73.169 -75.2549 73.4193 -79.7597 75.4214 -83.5137C77.4236 -87.2676 80.677 -90.2708 84.6812 -91.5221L118.467 -103.034C120.219 -103.535 121.971 -104.035 123.723 -104.035C130.48 -104.035 136.736 -99.7809 138.989 -93.274L161.262 -28.2051C164.015 -19.9463 159.761 -10.6865 151.252 -7.93361L117.466 3.57858C115.714 4.32938 113.962 4.57965 112.21 4.57965ZM123.472 -104.035C121.72 -104.035 119.969 -103.785 118.217 -103.285L84.6812 -91.5221C80.677 -90.2708 77.4235 -87.2676 75.6717 -83.5137C73.9198 -79.7597 73.6695 -75.5052 74.9209 -71.5009L97.1945 -6.43202C99.4469 0.0748701 105.453 4.32938 112.21 4.32938C113.962 4.32938 115.714 4.07911 117.466 3.57858L151.252 -7.93361C159.51 -10.6865 164.015 -19.6961 161.012 -27.9548L138.738 -93.0237C136.236 -99.5306 130.229 -104.035 123.472 -104.035Z" stroke="#BEEF96" stroke-opacity="0.42" stroke-width="1.5"/>
<path d="M125.224 32.3581C120.97 32.3581 116.965 30.6062 113.962 27.8533C110.959 24.8501 109.207 20.8459 109.207 16.5914L107.956 -52.2315C107.956 -56.486 109.457 -60.4902 112.461 -63.7437C115.464 -66.7469 119.468 -68.4987 123.722 -68.749L159.26 -69.2495H159.51C163.765 -69.2495 167.769 -67.4977 170.772 -64.7448C173.776 -61.7416 175.527 -57.7373 175.527 -53.4828L176.779 15.3401C176.779 19.5946 175.277 23.5988 172.274 26.8523C169.271 29.8555 165.267 31.6073 161.012 31.8576L125.474 32.3581C125.474 32.3581 125.474 32.3581 125.224 32.3581ZM159.761 -68.9993H159.51L123.973 -68.4987C119.718 -68.4987 115.714 -66.7469 112.961 -63.7437C109.958 -60.7405 108.456 -56.7363 108.456 -52.4818L109.708 16.3412C109.958 24.8502 116.965 31.8576 125.474 31.8576H125.725L161.262 31.3571C165.517 31.3571 169.521 29.6052 172.274 26.602C175.277 23.5988 176.779 19.5946 176.779 15.3401L175.527 -53.4828C175.527 -61.9918 168.27 -68.9993 159.761 -68.9993Z" stroke="#BEEF96" stroke-opacity="0.42" stroke-width="1.5"/>
<path d="M151.502 1.07523C149.75 1.07523 147.998 0.824963 146.247 0.0741678L81.1776 -22.1994C72.9189 -24.9523 68.4141 -34.2121 71.167 -42.4709L82.6792 -76.2567C84.9316 -82.7636 90.938 -87.0181 97.9454 -87.0181C99.6973 -87.0181 101.449 -86.7678 103.201 -86.2673L168.27 -63.9937C176.529 -61.2408 181.033 -51.981 178.28 -43.7222L166.768 -9.93644C164.516 -3.17928 158.259 1.07523 151.502 1.07523ZM97.9454 -86.7678C91.1883 -86.7678 85.1819 -82.5133 82.9295 -76.0064L71.4173 -42.2206C68.6644 -33.9619 72.9189 -24.9523 81.1776 -22.1994L146.247 0.0741678C147.998 0.574698 149.75 0.824971 151.502 0.824971C158.259 0.824971 164.266 -3.42954 166.518 -9.93644L178.03 -43.7222C180.783 -51.981 176.529 -60.9905 168.27 -63.7434L103.201 -86.017C101.449 -86.5176 99.6973 -86.7678 97.9454 -86.7678Z" stroke="#BEEF96" stroke-opacity="0.42" stroke-width="1.5"/>
<path d="M163.264 73.1519C161.763 73.1519 160.011 72.9016 158.509 72.4011L124.473 61.89C120.469 60.6386 116.965 57.8857 114.963 54.1317C112.961 50.3778 112.461 46.1233 113.712 41.8688L133.733 -23.951C135.735 -30.7081 141.992 -35.2129 148.999 -35.2129C150.501 -35.2129 152.253 -34.9626 153.754 -34.4621L187.79 -23.951C196.299 -21.4483 201.055 -12.4388 198.552 -3.92976L178.531 61.89C176.529 68.3969 170.272 73.1519 163.264 73.1519ZM149.25 -34.9626C142.242 -34.9626 136.236 -30.4579 134.234 -23.7007L114.213 42.119C112.961 46.1232 113.462 50.3778 115.464 54.1317C117.466 57.8857 120.719 60.6386 124.724 61.89L158.76 72.4011C160.261 72.9016 161.763 73.1519 163.515 73.1519C170.522 73.1519 176.529 68.6471 178.531 61.89L198.552 -3.92976C201.055 -12.1885 196.3 -21.1981 188.041 -23.7007L154.005 -34.2118C152.503 -34.7124 150.751 -34.9626 149.25 -34.9626Z" stroke="#BEEF96" stroke-opacity="0.42" stroke-width="1.5"/>
<path d="M163.765 41.1174C160.261 41.1174 157.008 40.1163 154.255 37.8639L99.1967 -3.4298C95.693 -5.93245 93.4406 -9.68642 92.9401 -13.9409C92.4395 -18.1954 93.4406 -22.4499 95.9432 -25.7034L117.466 -54.2336C120.469 -58.2378 125.224 -60.7405 130.23 -60.7405C133.733 -60.7405 136.987 -59.7394 139.74 -57.487L194.798 -16.1933C201.805 -10.9377 203.307 -0.927143 198.051 6.33054L176.529 34.8608C173.525 38.865 168.77 41.1174 163.765 41.1174ZM130.23 -60.4902C125.224 -60.4902 120.719 -58.2378 117.466 -54.2336L95.9432 -25.7034C93.4406 -22.4499 92.4395 -18.1954 92.9401 -13.9409C93.4406 -9.68642 95.693 -5.93245 99.1967 -3.4298L154.255 37.8639C157.008 39.8661 160.261 41.1174 163.765 41.1174C168.77 41.1174 173.275 38.865 176.529 34.8608L198.051 6.33054C203.307 -0.676878 201.805 -10.6875 195.048 -15.6928L139.99 -56.9865C136.987 -59.4892 133.733 -60.4902 130.23 -60.4902Z" stroke="#BEEF96" stroke-opacity="0.42" stroke-width="1.5"/>
<path d="M152.753 113.194C149.5 113.194 146.246 112.193 143.493 110.191L114.212 89.6692C110.709 87.1666 108.456 83.6629 107.706 79.4084C106.955 75.1539 107.956 70.8994 110.458 67.3956L150 11.086C153.003 6.8315 158.009 4.32886 163.264 4.32886C166.518 4.32886 169.771 5.32991 172.524 7.33203L201.805 27.8538C209.063 32.8591 210.815 42.8697 205.809 50.1274L166.268 106.437C162.764 110.692 158.009 113.194 152.753 113.194ZM163.014 4.57912C157.759 4.57912 153.003 7.08176 150 11.3363L110.458 67.6459C107.956 71.1496 107.205 75.4041 107.956 79.4084C108.707 83.6629 110.959 87.1666 114.463 89.6692L143.744 110.191C146.497 112.193 149.5 112.944 152.753 112.944C158.009 112.944 162.764 110.441 165.767 106.187L205.309 49.8771C210.314 42.6194 208.562 32.8591 201.305 27.8538L172.024 7.33203C169.271 5.58018 166.268 4.57912 163.014 4.57912Z" stroke="#BEEF96" stroke-opacity="0.42" stroke-width="1.5"/>
<path d="M163.014 82.9114C157.759 82.9114 152.754 80.4088 149.75 76.1543L110.208 19.8447C107.706 16.3409 106.705 12.0864 107.456 7.83193C108.206 3.57742 110.459 -0.176551 113.962 -2.42894L143.243 -22.9507C145.996 -24.9528 149.25 -25.9539 152.503 -25.9539C157.759 -25.9539 162.764 -23.4512 165.767 -19.1967L205.309 37.1129C210.314 44.3706 208.563 54.3812 201.305 59.3865L172.024 79.9083C169.521 81.9104 166.268 82.9114 163.014 82.9114ZM152.754 -25.7036C149.5 -25.7036 146.247 -24.7025 143.744 -22.9507L114.463 -2.42894C110.959 0.0737141 108.707 3.57742 107.956 7.83193C107.205 12.0864 108.206 16.0907 110.459 19.5944L150.001 75.904C153.004 80.1585 157.759 82.6612 163.014 82.6612C166.268 82.6612 169.521 81.6601 172.024 79.9083L201.305 59.3865C208.563 54.3812 210.064 44.6209 205.059 37.3632L165.517 -18.9464C162.764 -23.2009 157.759 -25.7036 152.754 -25.7036Z" stroke="#BEEF96" stroke-opacity="0.42" stroke-width="1.5"/>
<path d="M130.23 147.979C125.224 147.979 120.469 145.727 117.466 141.473L95.9432 112.942C93.4405 109.439 92.1892 105.184 92.94 101.18C93.4406 96.9254 95.6929 93.1714 99.1967 90.6688L154.255 49.375C157.008 47.3729 160.512 46.1216 163.765 46.1216C168.77 46.1216 173.525 48.374 176.529 52.6285L198.051 81.1587C200.554 84.6624 201.805 88.9169 201.055 92.9211C200.554 97.1756 198.302 100.93 194.798 103.432L139.74 144.726C136.987 146.978 133.733 147.979 130.23 147.979ZM163.765 46.3719C160.261 46.3719 157.008 47.3729 154.255 49.6253L99.1967 90.919C95.9432 93.4217 93.6908 97.1757 92.94 101.43C92.4395 105.685 93.4405 109.689 95.9432 113.193L117.466 141.723C120.469 145.727 124.974 147.979 130.23 147.979C133.733 147.979 136.987 146.978 139.74 144.726L194.798 103.432C198.051 100.93 200.304 97.1756 201.055 92.9211C201.555 88.6666 200.554 84.6624 198.051 81.1587L176.529 52.6285C173.275 48.6242 168.77 46.3719 163.765 46.3719Z" stroke="#BEEF96" stroke-opacity="0.42" stroke-width="1.5"/>
<path d="M149.25 122.454C142.242 122.454 135.986 117.949 133.983 111.192L113.962 45.3722C112.711 41.368 113.211 36.8632 115.214 33.1093C117.216 29.3553 120.469 26.6024 124.724 25.351L158.76 14.8399C160.261 14.3394 161.763 14.0891 163.515 14.0891C170.522 14.0891 176.779 18.5939 178.781 25.351L198.802 91.1708C201.305 99.6798 196.55 108.689 188.041 111.192L154.005 121.703C152.503 122.204 150.751 122.454 149.25 122.454ZM163.264 14.3394C161.763 14.3394 160.261 14.5897 158.509 15.0902L124.473 25.6013C120.469 26.8526 117.216 29.6055 115.214 33.3595C113.211 37.1135 112.711 41.368 113.962 45.3722L133.983 111.192C135.986 117.949 141.992 122.454 148.999 122.454C150.501 122.454 152.003 122.204 153.754 121.703L187.79 111.192C196.049 108.689 200.804 99.6798 198.302 91.421L178.28 25.6013C176.278 18.8442 170.272 14.3394 163.264 14.3394Z" stroke="#BEEF96" stroke-opacity="0.42" stroke-width="1.5"/>
<path d="M97.9453 174.258C91.1882 174.258 84.9315 170.003 82.6792 163.496L71.1669 129.711C69.6654 125.706 70.1659 121.202 71.9178 117.448C73.9199 113.694 77.1733 110.691 81.1776 109.439L146.246 87.1656C147.998 86.6651 149.75 86.4148 151.502 86.4148C158.259 86.4148 164.516 90.6693 166.768 97.1762L178.28 130.962C179.782 134.966 179.532 139.471 177.53 143.225C175.527 146.979 172.274 149.982 168.27 151.233L103.201 173.507C101.699 174.008 99.9475 174.258 97.9453 174.258ZM151.502 86.1646C149.75 86.1646 147.998 86.4148 146.246 86.9154L81.1776 109.189C77.1733 110.44 73.9199 113.443 72.168 117.197C70.4162 120.951 70.1659 125.206 71.4172 129.21L82.9294 162.996C85.1818 169.503 91.1882 173.757 97.9453 173.757C99.6972 173.757 101.449 173.507 103.201 173.007L168.27 150.733C172.274 149.482 175.528 146.478 177.279 142.724C179.031 138.97 179.281 134.716 178.03 130.712L166.518 96.926C164.266 90.6693 158.259 86.1646 151.502 86.1646Z" stroke="#BEEF96" stroke-opacity="0.42" stroke-width="1.5"/>
<path d="M159.761 156.49H159.51L123.973 155.989C119.718 155.989 115.714 154.237 112.711 150.984C109.708 147.981 108.206 143.976 108.206 139.472L109.457 70.6488C109.457 66.3942 111.209 62.39 114.212 59.3868C117.216 56.3836 121.47 54.6318 125.725 54.882L161.262 55.3826C165.517 55.3826 169.521 57.1344 172.524 60.3879C175.527 63.3911 177.029 67.6456 177.029 71.9001L175.778 140.723C175.778 144.977 174.026 148.982 171.023 151.985C168.019 154.738 164.015 156.49 159.761 156.49ZM125.224 55.1323C116.715 55.1323 109.457 62.1397 109.457 70.6488L108.206 139.472C108.206 143.726 109.708 147.73 112.711 150.734C115.714 153.737 119.468 155.489 123.722 155.489L159.26 155.989H159.51C168.019 155.989 175.277 148.982 175.277 140.473L176.528 71.6498C176.528 67.3953 175.027 63.3911 172.024 60.3879C169.02 57.3847 165.267 55.6329 161.012 55.6329L125.474 55.1323C125.474 55.1323 125.474 55.1323 125.224 55.1323Z" stroke="#BEEF96" stroke-opacity="0.42" stroke-width="1.5"/>
<path d="M59.4044 189.275C55.1499 189.275 51.1457 187.523 48.1425 184.77C45.1393 181.767 43.3875 177.763 43.3875 173.508L42.887 137.97C42.887 133.716 44.3885 129.712 47.3917 126.458C50.3949 123.455 54.3991 121.703 58.6536 121.453L127.477 120.202C131.731 120.202 135.986 121.703 138.989 124.706C141.992 127.71 143.744 131.714 143.744 135.968L144.244 171.506C144.495 180.265 137.237 187.773 128.478 187.773L59.6547 189.025C59.6547 189.275 59.4044 189.275 59.4044 189.275ZM127.477 120.452H127.226L58.4034 121.703C54.1489 121.703 50.1446 123.455 47.3917 126.458C44.3885 129.461 42.887 133.466 42.887 137.72L43.3875 173.258C43.6378 181.767 50.6452 188.774 59.1542 188.774H59.4044L128.227 187.523C136.987 187.273 143.994 180.265 143.744 171.506L143.243 135.968C143.243 127.459 136.236 120.452 127.477 120.452Z" stroke="#BEEF96" stroke-opacity="0.42" stroke-width="1.5"/>
<path d="M-24.1838 392.241C-30.1902 392.241 -35.9463 390.489 -40.9516 387.486C-46.2072 384.233 -50.2114 379.728 -52.9643 374.222L-84.2475 310.154C-88.0014 302.396 -88.502 293.887 -85.7491 285.628C-82.9961 277.62 -77.24 271.113 -69.4818 267.359L54.1491 207.045C58.6539 204.793 63.1587 203.792 68.164 203.792C74.1703 203.792 79.9264 205.543 84.9317 208.547C90.1873 211.8 94.1915 216.305 96.9444 221.811L128.228 285.878C135.986 301.645 129.479 320.916 113.462 328.674L-10.169 388.988C-14.6738 391.24 -19.4288 392.241 -24.1838 392.241ZM67.9137 204.042C63.1587 204.042 58.4036 205.043 53.8989 207.295L-69.7321 267.609C-77.24 271.363 -82.9961 277.87 -85.7491 285.878C-88.502 293.887 -88.0014 302.396 -84.2475 310.154L-52.9643 374.222C-47.7088 385.234 -36.6971 391.991 -24.4341 391.991C-19.6791 391.991 -14.924 390.99 -10.4193 388.737L113.212 328.424C128.978 320.665 135.485 301.645 127.727 285.878L96.4439 221.811C91.1884 210.799 80.1767 204.042 67.9137 204.042Z" stroke="#BEEF96" stroke-opacity="0.42" stroke-width="1.5"/>
<path d="M-119.535 359.706C-127.043 359.706 -134.551 356.953 -140.307 351.948C-146.063 346.943 -150.067 339.935 -151.069 332.177L-161.079 261.602C-162.33 253.093 -160.078 244.834 -155.073 237.827C-150.067 231.07 -142.56 226.565 -134.05 225.314L2.0937 206.043C3.59529 205.793 5.09689 205.793 6.59848 205.793C14.1064 205.793 21.6144 208.546 27.3705 213.551C33.1265 218.556 37.1308 225.564 38.1319 233.322L48.1425 303.897C50.6451 321.415 38.3821 337.432 20.8636 339.935L-115.281 359.205C-116.532 359.456 -118.034 359.706 -119.535 359.706ZM6.84873 206.043C5.34713 206.043 3.84554 206.043 2.34395 206.293L-133.8 225.564C-142.309 226.815 -149.567 231.07 -154.822 237.827C-159.828 244.584 -162.08 252.843 -160.829 261.352L-150.818 331.927C-148.566 347.443 -135.052 359.205 -119.535 359.205C-118.034 359.205 -116.532 359.205 -115.03 358.955L21.1138 339.685C38.3821 337.182 50.6451 321.165 48.1425 303.897L38.1319 233.322C36.1297 217.806 22.6154 206.043 6.84873 206.043Z" stroke="#BEEF96" stroke-opacity="0.42" stroke-width="1.5"/>
<path d="M296.155 60.6392C294.654 60.6392 293.152 60.6392 291.65 60.3889L221.076 50.3783C212.567 49.127 205.059 44.8725 200.053 37.865C194.798 31.1079 192.796 22.5989 194.047 14.0898L213.067 -122.054C214.068 -129.813 218.072 -136.82 223.829 -141.825C229.585 -146.831 237.093 -149.583 244.601 -149.583C246.102 -149.583 247.604 -149.583 249.105 -149.333L319.68 -139.323C337.199 -136.82 349.211 -120.803 346.959 -103.284L327.939 32.8597C326.938 40.6179 322.933 47.6254 317.177 52.6307C311.171 57.8863 303.663 60.6392 296.155 60.6392ZM244.601 -149.083C228.834 -149.083 215.32 -137.321 213.317 -121.804L194.297 14.3401C193.046 22.8491 195.298 31.1079 200.304 37.865C205.309 44.6222 212.817 49.127 221.326 50.128L291.901 60.1386C293.402 60.3889 294.904 60.3889 296.405 60.3889C312.172 60.3889 325.686 48.6264 327.689 33.11L346.709 -103.034C349.211 -120.302 336.948 -136.319 319.68 -138.822L249.105 -148.833C247.604 -149.083 246.102 -149.083 244.601 -149.083Z" stroke="#BEEF96" stroke-opacity="0.42" stroke-width="1.5"/>
<path d="M287.646 143.228C282.891 143.228 278.136 142.227 273.631 139.974L209.564 108.691C201.805 104.937 196.049 98.4303 193.296 90.4218C190.543 82.4134 191.044 73.6541 194.798 65.8959L255.112 -57.7351C257.865 -63.2409 261.869 -67.7457 267.125 -70.9991C272.13 -74.0023 277.886 -75.7542 283.892 -75.7542C288.647 -75.7542 293.402 -74.7531 297.907 -72.5007L361.975 -41.2176C369.733 -37.4636 375.489 -30.9567 378.242 -22.9482C380.995 -14.9397 380.495 -6.18047 376.741 1.57774L316.427 125.209C313.674 130.715 309.67 135.219 304.414 138.473C299.409 141.726 293.653 143.228 287.646 143.228ZM283.892 -75.2536C271.629 -75.2536 260.618 -68.4965 255.362 -57.4848L195.048 66.1461C191.294 73.6541 190.794 82.4134 193.547 90.4218C196.3 98.4303 202.056 104.937 209.564 108.691L273.631 139.974C278.136 142.227 282.641 143.228 287.396 143.228C299.659 143.228 310.671 136.471 315.926 125.459L376.24 1.82802C379.994 -5.67993 380.495 -14.4392 377.742 -22.4477C374.989 -30.4562 369.233 -36.9631 361.725 -40.717L297.657 -72.0002C293.402 -74.2526 288.647 -75.2536 283.892 -75.2536Z" stroke="#BEEF96" stroke-opacity="0.42" stroke-width="1.5"/>
<path d="M298.408 80.4096C289.648 80.4096 281.39 76.9059 275.383 70.6493L179.782 -28.2054C173.776 -34.4621 170.772 -42.4706 170.772 -50.9796C171.023 -59.4886 174.276 -67.4971 180.533 -73.5034L231.837 -123.056C237.844 -128.812 245.602 -132.065 254.111 -132.065C262.87 -132.065 271.129 -128.562 277.135 -122.305L372.736 -23.4504C384.999 -10.6869 384.749 9.58459 371.986 21.8476L320.681 71.4001C314.675 77.1562 306.917 80.4096 298.408 80.4096ZM254.111 -131.815C245.852 -131.815 238.094 -128.562 232.087 -122.806L180.783 -73.2531C174.777 -67.2468 171.273 -59.4886 171.023 -50.9796C170.772 -42.4706 174.026 -34.4621 180.032 -28.4557L275.634 70.399C281.64 76.6556 289.648 80.1593 298.408 80.1593C306.666 80.1593 314.425 76.9059 320.431 71.1498L371.735 21.5973C384.249 9.33431 384.749 -10.6869 372.486 -23.2001L276.885 -122.055C270.879 -128.311 262.87 -131.815 254.111 -131.815Z" stroke="#BEEF96" stroke-opacity="0.42" stroke-width="1.5"/>
<path d="M254.361 219.057C246.102 219.057 238.094 215.803 232.087 210.047L180.783 160.495C174.526 154.488 171.273 146.48 171.023 137.971C170.772 129.462 174.026 121.453 180.032 115.197L275.634 16.3421C281.64 10.0855 289.899 6.58179 298.658 6.58179C306.917 6.58179 314.925 9.83525 320.931 15.5913L372.236 65.1438C384.999 77.4068 385.25 97.6783 372.987 110.442L277.385 209.296C271.129 215.803 262.87 219.057 254.361 219.057ZM298.408 7.08233C289.648 7.08233 281.64 10.586 275.634 16.8427L180.032 115.697C174.026 121.704 171.023 129.712 171.023 138.221C171.273 146.73 174.526 154.488 180.783 160.495L232.087 210.047C238.094 215.803 245.852 219.057 254.111 219.057C262.87 219.057 270.878 215.553 276.885 209.296L372.486 110.442C384.749 97.9285 384.249 77.6571 371.735 65.6444L320.431 16.0919C314.675 10.0855 306.666 7.08233 298.408 7.08233Z" stroke="#BEEF96" stroke-opacity="0.42" stroke-width="1.5"/>
<path d="M283.892 162.747C277.886 162.747 272.13 160.995 267.125 157.992C261.869 154.739 257.865 150.234 255.112 144.728L194.798 21.0973C191.044 13.3391 190.543 4.83005 193.296 -3.42869C196.049 -11.4372 201.805 -17.9441 209.564 -21.698L273.631 -52.9812C278.136 -55.2336 282.641 -56.2346 287.646 -56.2346C293.653 -56.2346 299.409 -54.4828 304.414 -51.4796C309.67 -48.2261 313.674 -43.7214 316.427 -38.2155L376.741 85.4154C384.499 101.182 377.992 120.453 361.975 128.211L297.907 159.494C293.653 161.746 288.898 162.747 283.892 162.747ZM287.646 -55.9844C282.891 -55.9844 278.136 -54.9833 273.631 -52.7309L209.564 -21.4478C202.056 -17.6938 196.3 -11.1869 193.547 -3.17841C190.794 4.83007 191.294 13.3391 195.048 21.0973L255.362 144.728C260.618 155.74 271.629 162.497 283.892 162.497C288.647 162.497 293.402 161.496 297.907 159.244L361.975 127.96C377.742 120.202 384.249 101.182 376.49 85.4154L316.177 -38.2155C310.921 -48.9769 299.909 -55.9844 287.646 -55.9844Z" stroke="#BEEF96" stroke-opacity="0.42" stroke-width="1.5"/>
<path d="M199.052 281.122C187.29 281.122 176.278 274.615 170.773 264.104L137.237 201.037C133.233 193.529 132.482 184.77 134.985 176.761C137.487 168.502 142.993 161.996 150.501 157.991L271.88 93.4229C276.384 90.9203 281.64 89.6689 286.896 89.6689C298.658 89.6689 309.67 96.1758 315.175 106.687L348.711 169.754C356.97 185.27 350.963 204.791 335.447 213.05L214.068 277.368C209.313 279.62 204.058 281.122 199.052 281.122ZM286.896 89.6689C281.64 89.6689 276.635 90.9203 272.13 93.4229L150.751 157.991C143.243 161.996 137.738 168.753 135.235 176.761C132.732 184.77 133.483 193.529 137.487 201.037L171.023 264.104C176.529 274.615 187.29 280.871 199.052 280.871C204.308 280.871 209.313 279.62 213.818 277.118L335.197 212.549C350.713 204.29 356.469 185.02 348.21 169.504L314.675 106.437C309.419 96.1759 298.658 89.6689 286.896 89.6689Z" stroke="#BEEF96" stroke-opacity="0.42" stroke-width="1.5"/>
<path d="M244.601 236.576C237.093 236.576 229.585 233.823 223.829 228.817C218.073 223.812 214.068 216.805 213.067 209.047L193.797 72.9023C192.546 64.3933 194.798 56.1345 199.803 49.1271C205.059 42.37 212.316 37.8652 220.825 36.6139L291.4 26.6033C292.902 26.353 294.403 26.353 295.905 26.353C303.413 26.353 310.921 29.1059 316.677 34.1112C322.433 39.1165 326.437 46.124 327.438 53.8822L346.709 190.026C349.211 207.545 336.949 223.562 319.43 226.065L248.855 236.075C247.604 236.325 246.102 236.576 244.601 236.576ZM296.155 26.6033C294.654 26.6033 293.152 26.6033 291.651 26.8535L221.076 36.8642C212.567 38.1155 205.309 42.37 200.053 49.1271C195.048 55.8843 192.796 64.1431 194.047 72.6521L213.318 208.796C215.57 224.313 229.084 236.075 244.601 236.075C246.102 236.075 247.604 236.075 249.105 235.825L319.68 225.814C336.948 223.312 349.211 207.295 346.709 190.026L327.438 53.8822C325.436 38.3658 311.922 26.6033 296.155 26.6033Z" stroke="#BEEF96" stroke-opacity="0.42" stroke-width="1.5"/>
<path d="M127.226 322.667C111.71 322.667 98.4459 311.655 95.693 296.139L83.43 225.814C81.9284 217.305 83.9305 209.046 88.6856 202.039C93.6909 195.032 100.949 190.277 109.207 189.025L244.601 165.25C246.353 165 248.355 164.75 250.107 164.75C265.623 164.75 278.887 175.761 281.64 191.278L294.153 261.352C297.156 278.62 285.644 295.388 268.126 298.391L132.732 322.166C130.98 322.667 128.978 322.667 127.226 322.667ZM250.357 165C248.605 165 246.603 165.25 244.851 165.5L109.458 189.275C101.199 190.777 93.9411 195.282 88.9358 202.289C84.1808 209.297 82.1787 217.555 83.6803 226.064L95.9433 296.389C98.6962 311.655 111.71 322.667 127.226 322.667C128.978 322.667 130.98 322.417 132.732 322.166L268.126 298.391C285.394 295.388 296.906 278.87 293.903 261.602L281.64 191.278C278.887 176.011 265.873 165 250.357 165Z" stroke="#BEEF96" stroke-opacity="0.42" stroke-width="1.5"/>
<path d="M254.862 306.9C253.11 306.9 251.108 306.65 249.356 306.4L179.031 294.137C170.522 292.635 163.265 287.88 158.509 281.123C153.504 274.116 151.752 265.607 153.254 257.348L177.029 121.954C179.782 106.688 193.046 95.4263 208.563 95.4263C210.314 95.4263 212.316 95.6765 214.068 95.9268L284.393 108.19C292.902 109.691 300.16 114.446 304.915 121.204C309.92 128.211 311.672 136.72 310.17 144.979L286.395 280.372C283.392 295.889 270.378 306.9 254.862 306.9ZM208.312 95.4263C192.796 95.4263 179.782 106.438 177.029 121.704L153.254 257.098C151.752 265.356 153.754 273.865 158.509 280.873C163.265 287.88 170.772 292.385 179.031 293.886L249.356 306.149C251.108 306.4 253.11 306.65 254.862 306.65C270.378 306.65 283.392 295.638 286.145 280.372L309.92 144.979C311.421 136.72 309.419 128.211 304.664 121.204C299.909 114.196 292.401 109.691 284.143 108.19L213.818 95.9268C212.066 95.4263 210.064 95.4263 208.312 95.4263Z" stroke="#BEEF96" stroke-opacity="0.42" stroke-width="1.5"/>
<path d="M182.535 359.457C181.033 359.457 179.532 359.457 178.03 359.206L41.886 339.936C24.3675 337.433 12.3548 321.166 14.6071 303.898L24.6177 233.323C25.6188 225.565 29.6231 218.557 35.3792 213.552C41.1352 208.547 48.6432 205.794 56.1511 205.794C57.6527 205.794 59.1543 205.794 60.6559 206.044L196.8 225.315C205.309 226.566 212.817 230.82 217.822 237.828C223.078 244.585 225.08 253.094 223.829 261.603L213.818 332.178C212.817 339.936 208.813 346.943 203.057 351.949C197.551 356.704 190.043 359.457 182.535 359.457ZM56.1511 206.044C40.3844 206.044 26.8701 217.807 24.868 233.323L14.8574 303.898C12.3547 321.166 24.6177 337.183 41.886 339.686L178.03 358.956C179.532 359.206 181.033 359.206 182.535 359.206C198.302 359.206 211.816 347.444 213.818 331.928L223.829 261.353C225.08 252.844 222.828 244.585 217.822 237.828C212.817 231.071 205.309 226.566 196.8 225.565L60.6559 206.294C59.1543 206.044 57.6527 206.044 56.1511 206.044Z" stroke="#BEEF96" stroke-opacity="0.42" stroke-width="1.5"/>
<path d="M172.274 364.712C167.019 364.712 162.013 363.46 157.258 360.958L94.1915 327.422C86.6835 323.418 81.1777 316.661 78.675 308.652C76.1724 300.394 76.9232 291.885 80.9274 284.377L145.496 162.998C151.002 152.487 161.763 145.98 173.776 145.98C179.031 145.98 184.037 147.231 188.792 149.734L251.859 183.27C259.366 187.274 264.872 194.031 267.375 202.039C269.878 210.298 269.127 218.807 265.123 226.315L200.554 347.694C195.048 358.205 184.037 364.712 172.274 364.712ZM173.776 145.98C162.013 145.98 151.252 152.487 145.746 162.748L81.1777 284.126C77.1734 291.634 76.4227 300.143 78.9253 308.402C81.428 316.411 86.9338 323.168 94.4417 327.172L157.509 360.707C162.013 363.21 167.269 364.461 172.274 364.461C184.037 364.461 194.798 357.955 200.304 347.694L264.872 226.315C268.877 218.807 269.627 210.298 267.125 202.039C264.622 194.031 259.116 187.274 251.608 183.27L188.541 149.734C184.287 147.231 179.031 145.98 173.776 145.98Z" stroke="#BEEF96" stroke-opacity="0.42" stroke-width="1.5"/>
<path d="M87.184 392.241C82.429 392.241 77.6739 391.24 73.1691 388.988L-50.4618 328.674C-58.22 324.92 -63.9761 318.413 -66.729 310.404C-69.4819 302.396 -68.9814 293.637 -65.2274 285.878L-33.9443 221.811C-31.1914 216.305 -27.1872 211.8 -21.9316 208.547C-16.9263 205.543 -11.1702 203.792 -5.16382 203.792C-0.408781 203.792 4.34625 204.793 8.85102 207.045L132.482 267.359C148.249 275.117 155.006 294.137 147.248 310.154L115.964 374.222C113.212 379.728 109.207 384.233 103.952 387.486C98.9464 390.489 93.1904 392.241 87.184 392.241ZM-5.16382 204.042C-17.4268 204.042 -28.4385 210.799 -33.694 221.811L-64.9772 285.878C-68.7312 293.386 -69.2317 302.146 -66.4788 310.154C-63.7259 318.163 -57.9698 324.67 -50.4618 328.424L73.1691 388.737C77.6739 390.99 82.1787 391.991 87.184 391.991C99.447 391.991 110.459 385.234 115.714 374.222L146.997 310.154C154.756 294.387 147.998 275.367 132.482 267.609L8.85102 207.295C4.59652 205.293 -0.158516 204.042 -5.16382 204.042Z" stroke="#BEEF96" stroke-opacity="0.42" stroke-width="1.5"/>
<path d="M76.1723 393.991C67.413 393.991 59.1543 390.487 53.1479 384.231L3.59546 332.926C-2.41091 326.67 -5.41406 318.661 -5.41406 310.152C-5.1638 301.643 -1.91037 293.635 4.34626 287.628L103.201 192.027C109.207 186.271 116.966 183.018 125.475 183.018C134.234 183.018 142.493 186.521 148.499 192.778L198.051 244.082C204.058 250.339 207.061 258.347 207.061 266.856C206.811 275.365 203.557 283.374 197.301 289.38L98.4459 384.982C92.1893 390.738 84.4311 393.991 76.1723 393.991ZM125.475 183.518C117.216 183.518 109.458 186.772 103.451 192.528L4.59654 288.129C-1.40982 294.135 -4.91354 301.894 -5.1638 310.403C-5.41407 318.912 -2.16062 326.92 3.84574 332.926L53.3982 384.231C59.4046 390.487 67.6633 393.991 76.1723 393.991C84.4311 393.991 92.1893 390.738 98.1957 384.982L197.05 289.38C203.057 283.374 206.56 275.616 206.811 267.107C207.061 258.598 203.808 250.589 197.801 244.583L148.249 193.278C142.242 186.772 134.234 183.518 125.475 183.518Z" stroke="#BEEF96" stroke-opacity="0.42" stroke-width="1.5"/>
<path d="M-13.4225 393.992C-21.6813 393.992 -29.6898 390.738 -35.6961 384.982L-134.551 289.381C-147.314 277.118 -147.565 256.846 -135.302 244.083L-85.7492 192.778C-79.7428 186.522 -71.484 183.018 -62.7248 183.018C-54.466 183.018 -46.4575 186.272 -40.4512 192.028L58.4035 287.629C71.1671 299.892 71.4173 320.163 59.1544 332.927L9.60186 384.231C3.59549 390.488 -4.66327 393.992 -13.4225 393.992ZM-62.7248 183.519C-71.484 183.519 -79.4925 187.022 -85.4989 193.279L-135.051 244.583C-147.314 257.097 -146.814 277.368 -134.301 289.381L-35.4459 384.982C-29.4395 390.738 -21.6813 393.992 -13.4225 393.992C-4.66327 393.992 3.34521 390.488 9.35157 384.231L58.9041 332.927C71.1671 320.414 70.6665 300.142 58.1533 288.129L-40.7014 192.528C-46.4575 186.522 -54.466 183.519 -62.7248 183.519Z" stroke="#BEEF96" stroke-opacity="0.42" stroke-width="1.5"/>
</g>
<defs>
<linearGradient id="paint0_linear" x1="193" y1="285.595" x2="193" y2="490.514" gradientUnits="userSpaceOnUse">
<stop offset="0.411458" stop-color="white" stop-opacity="0"/>
<stop offset="1" stop-color="white"/>
</linearGradient>
</defs>
</svg>
