<svg width="139" height="141" viewBox="0 0 139 141" fill="none" xmlns="http://www.w3.org/2000/svg">
<path d="M62.8429 3.32066C66.7357 0.209375 72.2643 0.209376 76.1571 3.32066C78.9913 5.58592 82.783 6.25449 86.2211 5.09521C90.9432 3.50296 96.1384 5.39387 98.7323 9.64893C100.621 12.747 103.955 14.672 107.582 14.7585C112.564 14.8774 116.8 18.4311 117.782 23.3167C118.497 26.8738 120.972 29.8232 124.35 31.1451C128.991 32.9607 131.756 37.7487 131.008 42.6755C130.463 46.2627 131.78 49.8806 134.503 52.2785C138.243 55.5718 139.203 61.0165 136.815 65.3904C135.076 68.5749 135.076 72.4251 136.815 75.6096C139.203 79.9835 138.243 85.4282 134.503 88.7215C131.78 91.1194 130.463 94.7373 131.008 98.3244C131.756 103.251 128.991 108.039 124.35 109.855C120.972 111.177 118.497 114.126 117.782 117.683C116.8 122.569 112.564 126.123 107.582 126.241C103.955 126.328 100.621 128.253 98.7323 131.351C96.1384 135.606 90.9432 137.497 86.2211 135.905C82.783 134.746 78.9913 135.414 76.1571 137.679C72.2643 140.791 66.7357 140.791 62.8429 137.679C60.0087 135.414 56.217 134.746 52.7789 135.905C48.0568 137.497 42.8616 135.606 40.2677 131.351C38.3791 128.253 35.0448 126.328 31.4176 126.241C26.4356 126.123 22.2005 122.569 21.2183 117.683C20.5033 114.126 18.0284 111.177 14.6495 109.855C10.0087 108.039 7.24437 103.251 7.99244 98.3244C8.53709 94.7373 7.22027 91.1194 4.49726 88.7215C0.757268 85.4282 -0.20277 79.9835 2.18528 75.6096C3.92396 72.4251 3.92396 68.5749 2.18528 65.3904C-0.20277 61.0165 0.757268 55.5718 4.49726 52.2785C7.22027 49.8806 8.53709 46.2627 7.99244 42.6755C7.24437 37.7487 10.0087 32.9607 14.6495 31.1451C18.0284 29.8232 20.5033 26.8738 21.2183 23.3167C22.2005 18.4311 26.4356 14.8774 31.4176 14.7585C35.0448 14.672 38.3791 12.747 40.2677 9.64894C42.8616 5.39387 48.0568 3.50296 52.7789 5.09521C56.217 6.25449 60.0087 5.58592 62.8429 3.32066Z" fill="url(#paint0_linear)"/>
<defs>
<linearGradient id="paint0_linear" x1="32.2141" y1="111.928" x2="265.043" y2="-57.5145" gradientUnits="userSpaceOnUse">
<stop stop-color="#50CF8C"/>
<stop offset="0.235517" stop-color="#FFE600"/>
<stop offset="0.437882" stop-color="#FF3D00"/>
</linearGradient>
</defs>
</svg>
