<svg width="74" height="74" viewBox="0 0 74 74" fill="none" xmlns="http://www.w3.org/2000/svg">
<path d="M73.5257 36.8564C73.5257 57.0326 57.1696 73.3886 36.9935 73.3886C16.8173 73.3886 0.461304 57.0326 0.461304 36.8564C0.461304 16.6802 16.8173 0.324219 36.9935 0.324219C57.1696 0.324219 73.5257 16.6802 73.5257 36.8564Z" fill="#B4C486"/>
<path fill-rule="evenodd" clip-rule="evenodd" d="M48.4442 16.8124C48.8418 17.04 48.9781 17.544 48.7485 17.9381L47.5119 20.0612C47.2823 20.4553 46.7739 20.5904 46.3762 20.3628C45.9786 20.1352 45.8423 19.6312 46.0719 19.2371L47.3085 17.114C47.5381 16.7199 48.0466 16.5848 48.4442 16.8124Z" fill="#647534"/>
<path fill-rule="evenodd" clip-rule="evenodd" d="M25.4052 16.8124C25.0075 17.04 24.8713 17.544 25.1009 17.9381L26.3375 20.0612C26.567 20.4553 27.0755 20.5904 27.4732 20.3628C27.8708 20.1352 28.007 19.6312 27.7775 19.2371L26.5409 17.114C26.3113 16.7199 25.8028 16.5848 25.4052 16.8124Z" fill="#647534"/>
<path fill-rule="evenodd" clip-rule="evenodd" d="M36.9502 11.9219C37.4093 11.9219 37.7816 12.2908 37.7816 12.746V17.894C37.7816 18.3492 37.4093 18.7181 36.9502 18.7181C36.491 18.7181 36.1188 18.3492 36.1188 17.894V12.746C36.1188 12.2908 36.491 11.9219 36.9502 11.9219Z" fill="#647534"/>
<path fill-rule="evenodd" clip-rule="evenodd" d="M13.8564 21.2337C14.1811 20.9118 14.7075 20.9118 15.0321 21.2337L18.7046 24.8739C19.0293 25.1957 19.0293 25.7175 18.7046 26.0393C18.3799 26.3612 17.8535 26.3612 17.5289 26.0393L13.8564 22.3991C13.5317 22.0773 13.5317 21.5555 13.8564 21.2337Z" fill="#647534"/>
<path fill-rule="evenodd" clip-rule="evenodd" d="M59.7594 21.2337C59.4348 20.9118 58.9084 20.9118 58.5837 21.2337L54.9112 24.8739C54.5865 25.1957 54.5865 25.7175 54.9112 26.0393C55.2359 26.3612 55.7623 26.3612 56.087 26.0393L59.7594 22.3991C60.0841 22.0773 60.0841 21.5555 59.7594 21.2337Z" fill="#647534"/>
<path fill-rule="evenodd" clip-rule="evenodd" d="M24.9741 49.7665C24.9741 49.309 25.345 48.9381 25.8025 48.9381H30.4846C30.9422 48.9381 31.313 49.309 31.313 49.7665C31.313 50.224 30.9422 50.5949 30.4846 50.5949H25.8025C25.345 50.5949 24.9741 50.224 24.9741 49.7665ZM24.9741 53.7093C24.9741 53.2518 25.345 52.8809 25.8025 52.8809H32.4561C32.9136 52.8809 33.2845 53.2518 33.2845 53.7093C33.2845 54.1668 32.9136 54.5377 32.4561 54.5377H25.8025C25.345 54.5377 24.9741 54.1668 24.9741 53.7093Z" fill="#647534"/>
<path fill-rule="evenodd" clip-rule="evenodd" d="M34.1129 30.9698V35.1421L35.7703 34.4055C36.4843 34.0882 37.2993 34.0882 38.0132 34.4055L39.6707 35.1421V30.9698H34.1129ZM33.5606 29.313C32.9506 29.313 32.4561 29.8075 32.4561 30.4175V35.9919C32.4561 36.7912 33.2788 37.3259 34.0092 37.0013L36.4432 35.9195C36.7288 35.7925 37.0548 35.7925 37.3404 35.9195L39.7743 37.0013C40.5048 37.3259 41.3275 36.7912 41.3275 35.9919V30.4175C41.3275 29.8075 40.833 29.313 40.2229 29.313H33.5606Z" fill="#647534"/>
<path fill-rule="evenodd" clip-rule="evenodd" d="M20.24 30.4774C20.24 29.3794 21.1301 28.4893 22.2282 28.4893H50.9458C52.0439 28.4893 52.934 29.3794 52.934 30.4774V59.1951C52.934 60.2931 52.0439 61.1832 50.9458 61.1832H22.2282C21.1301 61.1832 20.24 60.2931 20.24 59.1951V30.4774ZM22.2282 30.2565C22.1062 30.2565 22.0073 30.3554 22.0073 30.4774V59.1951C22.0073 59.3171 22.1062 59.416 22.2282 59.416H50.9458C51.0678 59.416 51.1667 59.3171 51.1667 59.1951V30.4774C51.1667 30.3554 51.0678 30.2565 50.9458 30.2565H22.2282Z" fill="#647534"/>
</svg>
