<svg width="74" height="74" viewBox="0 0 74 74" fill="none" xmlns="http://www.w3.org/2000/svg">
<path d="M73.0644 36.9209C73.0644 57.097 56.7083 73.453 36.5322 73.453C16.356 73.453 0 57.097 0 36.9209C0 16.7447 16.356 0.388672 36.5322 0.388672C56.7083 0.388672 73.0644 16.7447 73.0644 36.9209Z" fill="#B4C486"/>
<path fill-rule="evenodd" clip-rule="evenodd" d="M57.0687 38.1966C58.8772 39.794 60.3071 42.1107 60.3071 45.3725C60.3071 49.7665 58.6325 52.4662 56.671 54.0731C54.7468 55.6494 52.6192 56.1169 51.7345 56.2126C51.0448 56.2872 48.7297 56.2984 46.3056 56.2898C43.8468 56.281 41.1854 56.2505 39.7397 56.232C39.6012 56.2302 39.4877 56.3416 39.4877 56.4808C39.4877 58.1657 37.4467 59.0095 36.253 57.8181L31.2654 52.84C30.5151 52.0912 30.5151 50.8771 31.2654 50.1282L36.2175 45.1856C37.4243 43.9811 39.4877 44.8342 39.4877 46.5376C39.4877 46.682 39.5991 46.7947 39.736 46.8008C41.1135 46.8626 43.6512 46.964 46.0261 46.9932C47.2145 47.0078 48.3532 47.0042 49.2817 46.9692C50.2508 46.9328 50.8821 46.8642 51.1312 46.7874C51.4278 46.6961 51.8497 46.445 52.2477 46.0404C52.6394 45.6421 52.9578 45.1454 53.1056 44.6135C53.2495 44.0956 53.2373 43.5308 52.9561 42.9377C52.6693 42.333 52.0729 41.6377 50.9399 40.9359L51.8083 39.5394C53.1275 40.3566 53.9858 41.2671 54.4445 42.2346C54.9088 43.2136 54.933 44.187 54.6924 45.0527C54.4558 45.9044 53.9688 46.6366 53.4228 47.1918C52.883 47.7406 52.2347 48.1676 51.617 48.3579C51.1249 48.5095 50.2713 48.5768 49.3437 48.6117C48.3756 48.6481 47.2058 48.6514 46.0059 48.6367C43.6041 48.6072 41.0455 48.5048 39.6621 48.4427C38.6377 48.3968 37.8409 47.5534 37.8409 46.5376C37.8409 46.2985 37.5513 46.1787 37.3819 46.3478L32.4298 51.2904C32.3226 51.3974 32.3226 51.5708 32.4298 51.6778L37.4175 56.6559C37.5737 56.8119 37.8409 56.7014 37.8409 56.4808C37.8409 55.4266 38.7037 54.575 39.7609 54.5885C41.2049 54.607 43.8604 54.6374 46.3115 54.6462C48.7972 54.655 50.9849 54.6404 51.5571 54.5785C52.2293 54.5059 54.0207 54.1178 55.6262 52.8026C57.1945 51.5179 58.6603 49.2903 58.6603 45.3725C58.6603 42.6577 57.4942 40.7673 55.9773 39.4274C54.438 38.0677 52.5351 37.2778 51.1315 36.8458L51.6167 35.2752C53.1306 35.7411 55.2825 36.6189 57.0687 38.1966Z" fill="#647534"/>
<path fill-rule="evenodd" clip-rule="evenodd" d="M24.3695 41.2165C24.3695 40.7626 24.7382 40.3947 25.1929 40.3947H29.8467C30.3014 40.3947 30.67 40.7626 30.67 41.2165C30.67 41.6703 30.3014 42.0383 29.8467 42.0383H25.1929C24.7382 42.0383 24.3695 41.6703 24.3695 41.2165ZM24.3695 45.1279C24.3695 44.674 24.7382 44.3061 25.1929 44.3061H31.8061C32.2609 44.3061 32.6295 44.674 32.6295 45.1279C32.6295 45.5818 32.2609 45.9497 31.8061 45.9497H25.1929C24.7382 45.9497 24.3695 45.5818 24.3695 45.1279Z" fill="#647534"/>
<path fill-rule="evenodd" clip-rule="evenodd" d="M19.7158 22.0215C19.7158 20.9625 20.5759 20.104 21.637 20.104H50.3031C51.3641 20.104 52.2243 20.9625 52.2243 22.0215V47.5726H50.5775V22.0215C50.5775 21.8702 50.4546 21.7476 50.3031 21.7476H21.637C21.4854 21.7476 21.3625 21.8702 21.3625 22.0215V50.6327C21.3625 50.784 21.4854 50.9067 21.637 50.9067H31.3163V52.5503H21.637C20.5759 52.5503 19.7158 51.6918 19.7158 50.6327V22.0215Z" fill="#647534"/>
<path fill-rule="evenodd" clip-rule="evenodd" d="M33.4529 22.5694V26.7085L35.1003 25.9778C35.8099 25.663 36.62 25.663 37.3296 25.9778L38.977 26.7085V22.5694H33.4529ZM32.904 20.9258C32.2977 20.9258 31.8061 21.4164 31.8061 22.0215V27.5516C31.8061 28.3445 32.6239 28.8749 33.3498 28.5529L35.7691 27.4797C36.0529 27.3538 36.377 27.3538 36.6608 27.4797L39.0801 28.5529C39.8061 28.8749 40.6238 28.3445 40.6238 27.5516V22.0215C40.6238 21.4164 40.1323 20.9258 39.5259 20.9258H32.904Z" fill="#647534"/>
</svg>
