<svg width="74" height="74" viewBox="0 0 74 74" fill="none" xmlns="http://www.w3.org/2000/svg">
<path d="M73.0644 36.7919C73.0644 56.9681 56.7083 73.3241 36.5322 73.3241C16.356 73.3241 0 56.9681 0 36.7919C0 16.6158 16.356 0.259766 36.5322 0.259766C56.7083 0.259766 73.0644 16.6158 73.0644 36.7919Z" fill="#B4C486"/>
<path d="M55.735 21.3662C55.7332 21.3362 55.7303 21.3069 55.7262 21.2775C55.7215 21.2487 55.7162 21.2206 55.7092 21.193C55.7021 21.1654 55.6939 21.1378 55.6839 21.1114C55.6739 21.0844 55.6634 21.0579 55.6504 21.0321C55.6381 21.0069 55.6252 20.9828 55.6105 20.9593C55.5958 20.9347 55.58 20.9112 55.563 20.8883C55.5459 20.866 55.5283 20.8443 55.5096 20.8237C55.4908 20.8032 55.4714 20.7832 55.4508 20.7644C55.4297 20.745 55.408 20.7268 55.3845 20.7098C55.3622 20.6934 55.3399 20.6775 55.3158 20.6634C55.2912 20.6482 55.2659 20.6347 55.2401 20.6223C55.2143 20.61 55.1884 20.5989 55.1614 20.5889C55.1344 20.5789 55.1074 20.5707 55.0792 20.5636C55.0505 20.556 55.0211 20.5501 54.9912 20.5454C54.9759 20.5431 54.9618 20.5378 54.9465 20.5366C47.951 19.8368 42.4801 18.4144 36.829 13.4947C36.4621 13.1753 35.9049 13.2141 35.5867 13.5804C35.5662 13.6039 35.5509 13.6303 35.5333 13.6556C29.8505 18.5588 25.1046 19.8638 18.3732 20.536C17.923 20.5812 17.5801 20.9599 17.5801 21.4125V42.0369C17.5801 42.115 17.5907 42.1925 17.6112 42.2676C21.1824 55.438 35.585 61.695 36.1961 61.955C36.3065 62.002 36.4239 62.0255 36.5407 62.0255C36.6564 62.0255 36.7732 62.0026 36.8818 61.9568C37.5006 61.6973 52.0681 55.4409 55.6393 42.2682C55.6516 42.2218 55.661 42.1749 55.6657 42.1267L55.735 41.4451C55.7379 41.4158 55.7397 41.3858 55.7397 41.3559V21.4131C55.7397 21.3961 55.7362 21.3814 55.735 21.3662ZM53.9209 41.8743C50.8388 53.0867 38.744 59.1547 36.5425 60.1768C34.3603 59.1518 22.4411 53.0973 19.3407 41.9171V22.2045C25.7216 21.4982 30.6706 20.0359 36.2795 15.3275C41.8379 19.9378 47.4291 21.4765 53.9779 22.2016V41.3101L53.9209 41.8743Z" fill="#647534"/>
<path d="M44.8789 32.2722H44.0335C43.5686 28.3723 40.2182 25.3359 36.1615 25.3359C32.1048 25.3359 28.7544 28.3723 28.2901 32.2722H27.2674C26.7813 32.2722 26.3868 32.6661 26.3868 33.1528V46.0683C26.3868 46.555 26.7813 46.9489 27.2674 46.9489H44.8795C45.3656 46.9489 45.7601 46.555 45.7601 46.0683V33.1528C45.7595 32.6661 45.365 32.2722 44.8789 32.2722ZM36.1609 27.0971C39.2442 27.0971 41.7991 29.3468 42.2529 32.2722H30.0689C30.5233 29.3468 33.0776 27.0971 36.1609 27.0971ZM43.9983 34.0334V45.1877H28.1474V34.0334H43.9983Z" fill="#647534"/>
</svg>
