<svg width="74" height="74" viewBox="0 0 74 74" fill="none" xmlns="http://www.w3.org/2000/svg">
<path d="M73.2325 36.5977C73.2325 56.7744 56.876 73.1309 36.6993 73.1309C16.5226 73.1309 0.166077 56.7744 0.166077 36.5977C0.166077 16.4209 16.5226 0.0644531 36.6993 0.0644531C56.876 0.0644531 73.2325 16.4209 73.2325 36.5977Z" fill="#B4C486"/>
<mask id="mask0" mask-type="alpha" maskUnits="userSpaceOnUse" x="0" y="0" width="74" height="74">
<path d="M73.2325 36.5977C73.2325 56.7744 56.876 73.1309 36.6993 73.1309C16.5226 73.1309 0.166077 56.7744 0.166077 36.5977C0.166077 16.4209 16.5226 0.0644531 36.6993 0.0644531C56.876 0.0644531 73.2325 16.4209 73.2325 36.5977Z" fill="#E9FCFC"/>
</mask>
<g mask="url(#mask0)">
<path d="M48.7965 34.9585C48.9231 34.8227 48.9853 34.6396 48.9653 34.4548L47.8745 24.4067C47.8381 24.072 47.5494 23.8286 47.2178 23.8286H45.4009V23.6097C45.4009 22.0642 44.1036 20.8203 42.5252 20.8203C40.9466 20.8203 39.6493 22.0642 39.6493 23.6097V23.8286H37.8324C37.5008 23.8286 37.2121 24.0721 37.1757 24.4068L36.0849 34.4548C36.0649 34.6397 36.1275 34.8228 36.2536 34.9585C36.3796 35.0938 36.5572 35.1694 36.7416 35.1694H48.3085C48.4929 35.1694 48.6705 35.0938 48.7965 34.9585L48.6259 34.7995H36.4242C36.3433 34.7125 36.3042 34.5963 36.3168 34.4799L37.4076 24.4319C37.4304 24.2216 37.6137 24.0619 37.8324 24.0619H39.8825V23.6097C39.8825 22.2003 41.068 21.0535 42.5252 21.0535C43.9822 21.0535 45.1677 22.2003 45.1677 23.6097V24.0619H47.2178C47.4365 24.0619 47.6198 24.2216 47.6427 24.4319L48.7334 34.4799L48.6259 34.7995L48.7965 34.9585Z" fill="#647534"/>
<path fill-rule="evenodd" clip-rule="evenodd" d="M40.7368 23.6097C40.7368 22.6559 41.5391 21.8799 42.5252 21.8799C43.5112 21.8799 44.3134 22.6559 44.3134 23.6097V24.0619H40.7368V23.6097ZM42.5252 22.1131C41.6605 22.1131 40.97 22.792 40.97 23.6097V23.8286H44.0802V23.6097C44.0802 22.792 43.3897 22.1131 42.5252 22.1131Z" fill="#647534"/>
<path fill-rule="evenodd" clip-rule="evenodd" d="M44.7405 26.212C44.9764 26.212 45.1677 26.0269 45.1677 25.7988V24.8882H46.8332L47.8343 34.1098H37.2159L38.217 24.8882H39.8825V25.7988C39.8825 26.0269 40.0738 26.212 40.3097 26.212C40.5455 26.212 40.7368 26.0269 40.7368 25.7988V24.8882H44.3134V25.7988C44.3134 26.0269 44.5047 26.212 44.7405 26.212ZM37.4758 33.8766H47.5744L46.6239 25.1214H45.4009V25.7988C45.4009 26.163 45.0978 26.4452 44.7405 26.4452C44.3833 26.4452 44.0802 26.163 44.0802 25.7988V25.1214H40.97V25.7988C40.97 26.163 40.667 26.4452 40.3097 26.4452C39.9524 26.4452 39.6493 26.163 39.6493 25.7988V25.1214H38.4263L37.4758 33.8766Z" fill="#647534"/>
<path fill-rule="evenodd" clip-rule="evenodd" d="M48.7334 34.4799L47.6427 24.4319C47.6198 24.2216 47.4365 24.0619 47.2178 24.0619H45.1677V23.6097C45.1677 22.2003 43.9822 21.0535 42.5252 21.0535C41.068 21.0535 39.8825 22.2003 39.8825 23.6097V24.0619H37.8324C37.6137 24.0619 37.4304 24.2216 37.4076 24.4319L36.3168 34.4799L36.4242 34.7995H48.6259L48.7334 34.4799ZM45.1677 25.7988C45.1677 26.0269 44.9764 26.212 44.7405 26.212C44.5047 26.212 44.3134 26.0269 44.3134 25.7988V24.8882H40.7368V25.7988C40.7368 26.0269 40.5455 26.212 40.3097 26.212C40.0738 26.212 39.8825 26.0269 39.8825 25.7988V24.8882H38.217L37.2159 34.1098H47.8343L46.8332 24.8882H45.1677V25.7988ZM42.5252 21.8799C41.5391 21.8799 40.7368 22.6559 40.7368 23.6097V24.0619H44.3134V23.6097C44.3134 22.6559 43.5112 21.8799 42.5252 21.8799Z" fill="#647534"/>
<path d="M58.3095 16.2974H25.7957C24.4162 16.2974 23.2939 17.4198 23.2939 18.7992V39.4331C23.2939 39.7782 23.574 40.0584 23.9191 40.0584H60.186C60.5311 40.0584 60.8112 39.7782 60.8112 39.4331V18.7992C60.8113 17.4198 59.6889 16.2974 58.3095 16.2974ZM59.5607 38.8078H24.5445V18.7992C24.5445 18.1088 25.106 17.548 25.7957 17.548H58.3095C58.9992 17.548 59.5607 18.1088 59.5607 18.7992V38.8078Z" fill="#647534"/>
<path fill-rule="evenodd" clip-rule="evenodd" d="M25.7957 16.064H58.3095C59.8177 16.064 61.0445 17.2908 61.0444 18.799V39.4329C61.0444 39.9068 60.6599 40.2914 60.186 40.2914H23.9191C23.4452 40.2914 23.0606 39.9068 23.0606 39.4329V18.799C23.0606 17.2908 24.2874 16.064 25.7957 16.064ZM24.7777 38.5744H59.3275V18.799C59.3275 18.2375 58.8705 17.781 58.3095 17.781H25.7957C25.2347 17.781 24.7777 18.2375 24.7777 18.799V38.5744ZM25.7957 16.2972H58.3095C59.6889 16.2972 60.8113 17.4196 60.8112 18.799V39.4329C60.8112 39.778 60.5311 40.0582 60.186 40.0582H23.9191C23.574 40.0582 23.2939 39.778 23.2939 39.4329V18.799C23.2939 17.4196 24.4162 16.2972 25.7957 16.2972ZM59.5607 38.8076V18.799C59.5607 18.1086 58.9992 17.5478 58.3095 17.5478H25.7957C25.106 17.5478 24.5445 18.1086 24.5445 18.799V38.8076H59.5607Z" fill="#647534"/>
<path d="M60.1868 38.8091H23.9198C23.5747 38.8091 23.2946 39.0892 23.2946 39.4343V42.5602C23.2946 43.9396 24.417 45.062 25.7964 45.062H58.3102C59.6897 45.062 60.812 43.9396 60.812 42.5602V39.4343C60.812 39.0892 60.5319 38.8091 60.1868 38.8091ZM59.5614 42.5602C59.5614 43.2506 58.9999 43.8114 58.3102 43.8114H25.7964C25.1067 43.8114 24.5452 43.2506 24.5452 42.5602V40.0597H59.5615V42.5602H59.5614Z" fill="#647534"/>
<path fill-rule="evenodd" clip-rule="evenodd" d="M59.3276 42.3264V40.2922H24.7777V42.5596C24.7777 43.121 25.2347 43.5775 25.7957 43.5775H58.3095C58.8705 43.5775 59.3275 43.121 59.3275 42.5596L59.3276 42.3264ZM59.5608 42.5596V40.059H24.5445V42.5596C24.5445 43.2499 25.106 43.8108 25.7957 43.8108H58.3095C58.9992 43.8108 59.5608 43.2499 59.5608 42.5596ZM23.9191 38.5752H60.186C60.66 38.5752 61.0445 38.9597 61.0445 39.4337V42.5595C61.0445 44.0677 59.8177 45.2945 58.3095 45.2945H25.7957C24.2874 45.2945 23.0606 44.0677 23.0606 42.5595V39.4337C23.0606 38.9597 23.4452 38.5752 23.9191 38.5752ZM23.9191 38.8084H60.186C60.5312 38.8084 60.8113 39.0885 60.8113 39.4337V42.5595C60.8113 43.9389 59.6889 45.0613 58.3095 45.0613H25.7957C24.4162 45.0613 23.2939 43.9389 23.2939 42.5595V39.4337C23.2939 39.0885 23.574 38.8084 23.9191 38.8084Z" fill="#647534"/>
<path d="M50.1819 48.8125H33.9244C32.8902 48.8125 32.0485 49.6542 32.0485 50.6884C32.0485 51.7226 32.8902 52.5642 33.9244 52.5642H50.182C51.2162 52.5642 52.0578 51.7226 52.0578 50.6884C52.0578 49.6542 51.2161 48.8125 50.1819 48.8125ZM50.1819 51.3136H33.9244C33.5792 51.3136 33.2991 51.0329 33.2991 50.6884C33.2991 50.3438 33.5792 50.0631 33.9244 50.0631H50.182C50.5271 50.0631 50.8072 50.3438 50.8072 50.6884C50.8072 51.0329 50.5271 51.3136 50.1819 51.3136Z" fill="#647534"/>
<path fill-rule="evenodd" clip-rule="evenodd" d="M33.9237 48.5786H50.1812C51.3442 48.5786 52.2903 49.5247 52.2903 50.6877C52.2903 51.8507 51.3443 52.7968 50.1813 52.7968H33.9237C32.7606 52.7968 31.8146 51.8507 31.8146 50.6877C31.8146 49.5247 32.7606 48.5786 33.9237 48.5786ZM33.9237 51.0798H50.1812C50.3975 51.0798 50.5733 50.9036 50.5733 50.6877C50.5733 50.4718 50.3974 50.2957 50.1813 50.2957H33.9237C33.7075 50.2957 33.5316 50.4718 33.5316 50.6877C33.5316 50.9036 33.7075 51.0798 33.9237 51.0798ZM33.9237 48.8118H50.1812C51.2154 48.8118 52.0571 49.6535 52.0571 50.6877C52.0571 51.7219 51.2155 52.5636 50.1813 52.5636H33.9237C32.8894 52.5636 32.0478 51.7219 32.0478 50.6877C32.0478 49.6535 32.8894 48.8118 33.9237 48.8118ZM33.9237 51.313H50.1812C50.5264 51.313 50.8065 51.0322 50.8065 50.6877C50.8065 50.3432 50.5264 50.0624 50.1813 50.0624H33.9237C33.5785 50.0624 33.2984 50.3432 33.2984 50.6877C33.2984 51.0322 33.5785 51.313 33.9237 51.313Z" fill="#647534"/>
<path d="M48.9316 48.8133C46.8569 48.8133 45.8051 47.3408 45.8051 44.4363C45.8051 44.0912 45.525 43.811 45.1799 43.811H38.927C38.5818 43.811 38.3017 44.0912 38.3017 44.4363C38.3017 47.3408 37.25 48.8133 35.1752 48.8133C34.8301 48.8133 34.55 49.0934 34.55 49.4386C34.55 49.7837 34.8301 50.0638 35.1752 50.0638H42.0534H48.9316C49.2767 50.0638 49.5569 49.7837 49.5569 49.4386C49.5569 49.0934 49.2767 48.8133 48.9316 48.8133ZM38.221 48.8133C38.9907 47.9604 39.444 46.6904 39.5353 45.0616H44.572C44.6627 46.6904 45.116 47.9604 45.8864 48.8133H42.0537H38.221Z" fill="#647534"/>
<path fill-rule="evenodd" clip-rule="evenodd" d="M46.7794 47.5778C47.2508 48.2378 47.9558 48.5794 48.9309 48.5794C49.4048 48.5794 49.7894 48.964 49.7894 49.4379C49.7894 49.9118 49.4048 50.2964 48.9309 50.2964H35.1745C34.7006 50.2964 34.316 49.9118 34.316 49.4379C34.316 48.964 34.7006 48.5794 35.1745 48.5794C36.1496 48.5794 36.8546 48.2378 37.326 47.5778C37.8075 46.9037 38.0678 45.8665 38.0678 44.4356C38.0678 43.9617 38.4523 43.5771 38.9263 43.5771H45.1791C45.6531 43.5771 46.0376 43.9617 46.0376 44.4356C46.0376 45.8665 46.2979 46.9037 46.7794 47.5778ZM38.2202 48.8126H45.8857C45.8183 48.7381 45.7534 48.6603 45.6909 48.5794C45.0388 47.735 44.654 46.5473 44.5713 45.0609H39.5346C39.4513 46.5473 39.0665 47.735 38.4148 48.5794C38.3524 48.6603 38.2875 48.7381 38.2202 48.8126ZM38.7049 48.5794H45.4008C44.8086 47.7445 44.4561 46.633 44.353 45.2941H39.7528C39.6493 46.633 39.2967 47.7445 38.7049 48.5794ZM45.8044 44.4356C45.8044 47.3401 46.8561 48.8126 48.9309 48.8126C49.276 48.8126 49.5561 49.0928 49.5561 49.4379C49.5561 49.783 49.276 50.0632 48.9309 50.0632H35.1745C34.8294 50.0632 34.5492 49.783 34.5492 49.4379C34.5492 49.0928 34.8294 48.8126 35.1745 48.8126C37.2493 48.8126 38.301 47.3401 38.301 44.4356C38.301 44.0905 38.5811 43.8104 38.9263 43.8104H45.1791C45.5243 43.8104 45.8044 44.0905 45.8044 44.4356Z" fill="#647534"/>
<path d="M18.215 34.3608H19.3387V35.4845H18.215V34.3608Z" fill="#647534"/>
<rect x="14.0487" y="32.9443" width="17.5359" height="27.0346" rx="3" fill="#B4C486"/>
<path d="M20.4625 35.6532C20.4625 35.3429 20.714 35.0913 21.0243 35.0913H24.3954C24.7057 35.0913 24.9573 35.3429 24.9573 35.6532C24.9573 35.9635 24.7057 36.215 24.3954 36.215H21.0243C20.714 36.215 20.4625 35.9635 20.4625 35.6532Z" fill="#647534"/>
<path d="M16.6284 33.5229H28.6146C29.7828 33.5229 30.7298 34.4699 30.7298 35.6381V56.7902C30.7298 57.9584 29.7828 58.9054 28.6146 58.9054H17.1572L17.686 60.3155H28.6146C30.5616 60.3155 32.1399 58.7372 32.1399 56.7902V35.6381C32.1399 33.6911 30.5616 32.1128 28.6146 32.1128H16.6284C14.6814 32.1128 13.1031 33.6911 13.1031 35.6381V56.7902H14.5132V35.6381C14.5132 34.4699 15.4602 33.5229 16.6284 33.5229Z" fill="#647534"/>
<path d="M18.0644 59.0818L19.996 55.7366L20.2196 55.2933C20.4428 54.7676 20.4569 54.1766 20.2591 53.6409C20.0614 53.1052 19.6666 52.6652 19.1555 52.4106C18.6443 52.156 18.0553 52.1061 17.5086 52.2711C16.9619 52.436 16.4987 52.8033 16.2136 53.2981L14.3033 56.6085C14.2895 56.4971 14.2824 56.3849 14.282 56.2726V46.8896H13.1583C12.8007 47.056 12.5129 47.3425 12.3447 47.6993L9.79449 53.2318C9.41697 54.0434 9.22265 54.928 9.22534 55.8231V65.824H10.349V55.8231C10.3465 55.0912 10.5054 54.3678 10.8143 53.7043L13.1583 48.6185V56.2726C13.1579 56.9436 13.3299 57.6035 13.6578 58.189C13.7001 58.2838 13.7678 58.3649 13.8534 58.4235C13.939 58.4822 14.0391 58.5159 14.1428 58.5211C14.2464 58.5263 14.3494 58.5027 14.4404 58.4529C14.5314 58.4031 14.6069 58.3291 14.6584 58.239L17.1868 53.86C17.3368 53.604 17.5821 53.4177 17.8689 53.3419C18.1558 53.2661 18.4611 53.3068 18.718 53.4551C18.975 53.6035 19.1629 53.8475 19.2406 54.1339C19.3184 54.4202 19.2797 54.7257 19.133 54.9837L16.6047 59.3627C16.5545 59.4497 16.5284 59.5485 16.5293 59.6488C16.5302 59.7492 16.558 59.8476 16.6097 59.9336L17.8132 61.9338C18.9968 63.9066 15.9329 68.7779 14.282 69.4771C13.4193 69.8424 14.4907 70.2078 15.51 69.8424C17.6235 69.0849 20.1263 63.6031 18.7768 61.3551L18.0852 60.2055L18.0644 59.0818Z" fill="#647534"/>
<path d="M28.0115 51.2004C28.1146 51.09 28.1652 50.9412 28.1489 50.791L27.2607 42.6254C27.231 42.3534 26.996 42.1557 26.726 42.1557H25.2464V41.9777C25.2464 40.7218 24.19 39.7109 22.9046 39.7109C21.6192 39.7109 20.5628 40.7218 20.5628 41.9777V42.1557H19.0832C18.8132 42.1557 18.5781 42.3535 18.5485 42.6255L17.6602 50.791C17.6439 50.9413 17.6949 51.0901 17.7976 51.2004C17.9002 51.3103 18.0448 51.3717 18.195 51.3717H27.6141C27.7642 51.3717 27.9089 51.3103 28.0115 51.2004L27.8726 51.0712H17.9365C17.8706 51.0004 17.8388 50.906 17.849 50.8114L18.7373 42.6459C18.7559 42.475 18.9052 42.3452 19.0832 42.3452H20.7527V41.9777C20.7527 40.8324 21.7181 39.9005 22.9046 39.9005C24.0911 39.9005 25.0565 40.8324 25.0565 41.9777V42.3452H26.726C26.904 42.3452 27.0533 42.475 27.0719 42.6459L27.9601 50.8114L27.8726 51.0712L28.0115 51.2004Z" fill="#647534"/>
<path fill-rule="evenodd" clip-rule="evenodd" d="M21.4483 41.9777C21.4483 41.2027 22.1016 40.572 22.9046 40.572C23.7075 40.572 24.3608 41.2027 24.3608 41.9777V42.3452H21.4483V41.9777ZM22.9046 40.7615C22.2005 40.7615 21.6383 41.3132 21.6383 41.9777V42.1557H24.1709V41.9777C24.1709 41.3132 23.6086 40.7615 22.9046 40.7615Z" fill="#647534"/>
<path fill-rule="evenodd" clip-rule="evenodd" d="M24.7087 44.0925C24.9007 44.0925 25.0565 43.9421 25.0565 43.7567V43.0167H26.4127L27.2279 50.5107H18.5812L19.3965 43.0167H20.7527V43.7567C20.7527 43.9421 20.9085 44.0925 21.1005 44.0925C21.2926 44.0925 21.4483 43.9421 21.4483 43.7567V43.0167H24.3608V43.7567C24.3608 43.9421 24.5166 44.0925 24.7087 44.0925ZM18.7929 50.3211H27.0163L26.2423 43.2062H25.2464V43.7567C25.2464 44.0526 24.9996 44.282 24.7087 44.282C24.4177 44.282 24.1709 44.0526 24.1709 43.7567V43.2062H21.6383V43.7567C21.6383 44.0526 21.3915 44.282 21.1005 44.282C20.8096 44.282 20.5628 44.0526 20.5628 43.7567V43.2062H19.5669L18.7929 50.3211Z" fill="#647534"/>
<path fill-rule="evenodd" clip-rule="evenodd" d="M27.9601 50.8114L27.0719 42.6459C27.0533 42.475 26.904 42.3452 26.726 42.3452H25.0565V41.9777C25.0565 40.8324 24.0911 39.9005 22.9046 39.9005C21.7181 39.9005 20.7527 40.8324 20.7527 41.9777V42.3452H19.0832C18.9052 42.3452 18.7559 42.475 18.7373 42.6459L17.849 50.8114L17.9365 51.0712H27.8726L27.9601 50.8114ZM25.0565 43.7567C25.0565 43.9421 24.9007 44.0925 24.7087 44.0925C24.5166 44.0925 24.3608 43.9421 24.3608 43.7567V43.0167H21.4483V43.7567C21.4483 43.9421 21.2926 44.0925 21.1005 44.0925C20.9085 44.0925 20.7527 43.9421 20.7527 43.7567V43.0167H19.3965L18.5812 50.5107H27.2279L26.4127 43.0167H25.0565V43.7567ZM22.9046 40.572C22.1016 40.572 21.4483 41.2027 21.4483 41.9777V42.3452H24.3608V41.9777C24.3608 41.2027 23.7075 40.572 22.9046 40.572Z" fill="#647534"/>
</g>
</svg>
