<svg width="74" height="74" viewBox="0 0 74 74" fill="none" xmlns="http://www.w3.org/2000/svg">
<path d="M73.5257 36.5322C73.5257 56.7083 57.1696 73.0644 36.9935 73.0644C16.8173 73.0644 0.461296 56.7083 0.461296 36.5322C0.461296 16.356 16.8173 0 36.9935 0C57.1696 0 73.5257 16.356 73.5257 36.5322Z" fill="#B4C486"/>
<path fill-rule="evenodd" clip-rule="evenodd" d="M10.6903 25.8967C10.6903 24.1033 12.1442 22.6494 13.9376 22.6494H60.3277C62.1211 22.6494 63.575 24.1033 63.575 25.8967V44.4527C63.575 46.2462 62.1211 47.7001 60.3277 47.7001H56.8484V45.8444H60.3277C61.0963 45.8444 61.7194 45.2214 61.7194 44.4527V25.8967C61.7194 25.1281 61.0963 24.505 60.3277 24.505H13.9376C13.169 24.505 12.5459 25.1281 12.5459 25.8967V44.4527C12.5459 45.2214 13.169 45.8444 13.9376 45.8444H38.8723V47.7001H13.9376C12.1442 47.7001 10.6903 46.2462 10.6903 44.4527V25.8967Z" fill="#647534"/>
<path fill-rule="evenodd" clip-rule="evenodd" d="M46.8801 45.3667L51.7699 50.2557L53.3739 48.6517L48.4849 43.7619L50.6429 41.6039L41.7615 38.6433L44.7221 47.5247L46.8801 45.3667ZM44.0662 50.3041C43.8136 50.2442 43.6106 50.0588 43.5289 49.8128L39.3002 37.1273C39.2104 36.8586 39.2804 36.5623 39.4805 36.3622C39.6797 36.1629 39.9768 36.0899 40.2455 36.1819L52.9311 40.4107C53.1771 40.4924 53.3625 40.6954 53.4223 40.9479C53.4815 41.1998 53.4063 41.4647 53.223 41.648L51.109 43.762L55.4696 48.1232C55.7615 48.4152 55.7615 48.8883 55.4696 49.1803L52.2985 52.3513C52.0065 52.6434 51.5335 52.6434 51.2415 52.3513L46.8802 47.9908L44.7662 50.1048C44.5837 50.2873 44.3188 50.3625 44.0662 50.3041Z" fill="#647534"/>
<path d="M39.8916 33.0361C39.4784 33.0361 39.1441 32.7018 39.1441 32.2886V27.8036C39.1441 27.3905 39.4784 27.0562 39.8916 27.0562C40.3047 27.0562 40.6391 27.3905 40.6391 27.8036V32.2886C40.6391 32.7018 40.3047 33.0361 39.8916 33.0361Z" fill="#647534"/>
<path d="M36.192 34.1309L33.0203 30.9591C32.7283 30.6671 32.7283 30.1941 33.0203 29.9021C33.3122 29.6101 33.7853 29.6101 34.0773 29.9021L37.249 33.0738C37.541 33.3658 37.541 33.8389 37.249 34.1308C36.957 34.4228 36.484 34.4228 36.192 34.1309Z" fill="#647534"/>
<path d="M33.0203 43.645C32.7283 43.353 32.7283 42.8799 33.0203 42.588L36.192 39.4162C36.484 39.1243 36.957 39.1243 37.249 39.4162C37.541 39.7082 37.541 40.1813 37.249 40.4733L34.0773 43.645C33.7853 43.937 33.3123 43.937 33.0203 43.645Z" fill="#647534"/>
<path d="M42.5339 34.1308C42.242 33.8389 42.242 33.3658 42.5339 33.0738L45.7057 29.9021C45.9976 29.6101 46.4707 29.6101 46.7627 29.9021C47.0546 30.1941 47.0546 30.6671 46.7627 30.9591L43.5909 34.1308C43.299 34.4228 42.826 34.4228 42.5339 34.1308Z" fill="#647534"/>
<path d="M35.4066 37.5209H30.9216C30.5084 37.5209 30.1741 37.1865 30.1741 36.7734C30.1741 36.3602 30.5084 36.0259 30.9216 36.0259H35.4066C35.8197 36.0259 36.1541 36.3602 36.1541 36.7734C36.1541 37.1865 35.8197 37.5209 35.4066 37.5209Z" fill="#647534"/>
</svg>
