<svg width="74" height="74" viewBox="0 0 74 74" fill="none" xmlns="http://www.w3.org/2000/svg">
<path d="M73.5257 36.663C73.5257 56.8392 57.1697 73.1952 36.9935 73.1952C16.8173 73.1952 0.461304 56.8392 0.461304 36.663C0.461304 16.4869 16.8173 0.130859 36.9935 0.130859C57.1697 0.130859 73.5257 16.4869 73.5257 36.663Z" fill="#B4C486"/>
<path fill-rule="evenodd" clip-rule="evenodd" d="M37.2114 22.4445C34.0367 22.4445 31.1738 25.2268 31.1888 28.9206L31.1888 28.9243C31.1888 32.6984 34.0389 35.532 37.2114 35.532C40.381 35.532 43.2326 32.7016 43.2326 28.8889C43.2326 25.1605 40.3913 22.4445 37.2114 22.4445ZM29.3332 28.9262C29.3153 24.2742 32.9422 20.5889 37.2114 20.5889C41.4762 20.5889 45.0882 24.1968 45.0882 28.8889C45.0882 33.6046 41.5235 37.3876 37.2114 37.3876C32.903 37.3876 29.3341 33.6088 29.3332 28.9262ZM25.9311 42.3808C28.6305 40.1758 32.4965 38.5847 37.2114 38.5847C41.9176 38.5847 45.7791 40.1761 48.4759 42.381C51.1434 44.5619 52.7545 47.4222 52.7545 49.9928C52.7545 50.9847 52.4098 51.8952 51.4935 52.4946C50.6674 53.035 49.501 53.2328 48.0674 53.2328H26.337C24.9034 53.2328 23.7371 53.035 22.9109 52.4946C21.9947 51.8952 21.6499 50.9847 21.6499 49.9928C21.6499 47.4221 23.2611 44.5617 25.9311 42.3808ZM27.105 43.8179C24.7092 45.7749 23.5055 48.1546 23.5055 49.9928C23.5055 50.5188 23.6557 50.7644 23.9267 50.9417C24.2879 51.1779 25.0012 51.3772 26.337 51.3772H48.0674C49.4032 51.3772 50.1165 51.1779 50.4777 50.9417C50.7487 50.7644 50.8989 50.5188 50.8989 49.9928C50.8989 48.1545 49.6951 45.7747 47.3014 43.8176C44.937 41.8845 41.4908 40.4403 37.2114 40.4403C32.9224 40.4403 29.4715 41.8848 27.105 43.8179Z" fill="#647534"/>
</svg>
