<svg width="74" height="74" viewBox="0 0 74 74" fill="none" xmlns="http://www.w3.org/2000/svg">
<path d="M73.5257 36.7275C73.5257 56.9037 57.1697 73.2597 36.9935 73.2597C16.8173 73.2597 0.461304 56.9037 0.461304 36.7275C0.461304 16.5513 16.8173 0.195312 36.9935 0.195312C57.1697 0.195312 73.5257 16.5513 73.5257 36.7275Z" fill="#B4C486"/>
<path fill-rule="evenodd" clip-rule="evenodd" d="M20.409 22.2305C20.409 21.7181 20.8244 21.3027 21.3368 21.3027H24.9217C25.8369 21.3027 26.6453 21.8988 26.9159 22.773L27.9878 26.236H56.7113C58.1444 26.236 59.1514 27.6469 58.6855 29.0022L54.0562 42.4691C53.7665 43.3121 52.9734 43.8781 52.0821 43.8781H33.0451C32.1299 43.8781 31.3215 43.282 31.0509 42.4078L25.1433 23.3217C25.1132 23.2246 25.0234 23.1583 24.9217 23.1583H21.3368C20.8244 23.1583 20.409 22.7429 20.409 22.2305ZM28.5621 28.0916L32.8235 41.8591C32.8536 41.9562 32.9434 42.0225 33.0451 42.0225H52.0821C52.1811 42.0225 52.2692 41.9596 52.3014 41.8659L56.9307 28.399C56.9825 28.2484 56.8706 28.0916 56.7113 28.0916H28.5621Z" fill="#647534"/>
<path fill-rule="evenodd" clip-rule="evenodd" d="M35.6433 53.4279C37.3431 53.4279 38.721 52.05 38.721 50.3503C38.721 48.6505 37.3431 47.2726 35.6433 47.2726C33.9436 47.2726 32.5657 48.6505 32.5657 50.3503C32.5657 52.05 33.9436 53.4279 35.6433 53.4279ZM35.6433 55.2835C38.3679 55.2835 40.5766 53.0748 40.5766 50.3503C40.5766 47.6257 38.3679 45.417 35.6433 45.417C32.9188 45.417 30.7101 47.6257 30.7101 50.3503C30.7101 53.0748 32.9188 55.2835 35.6433 55.2835Z" fill="#647534"/>
<path fill-rule="evenodd" clip-rule="evenodd" d="M50.4431 53.4279C52.1429 53.4279 53.5208 52.05 53.5208 50.3503C53.5208 48.6505 52.1429 47.2726 50.4431 47.2726C48.7434 47.2726 47.3655 48.6505 47.3655 50.3503C47.3655 52.05 48.7434 53.4279 50.4431 53.4279ZM50.4431 55.2835C53.1677 55.2835 55.3764 53.0748 55.3764 50.3503C55.3764 47.6257 53.1677 45.417 50.4431 45.417C47.7186 45.417 45.5099 47.6257 45.5099 50.3503C45.5099 53.0748 47.7186 55.2835 50.4431 55.2835Z" fill="#647534"/>
<path fill-rule="evenodd" clip-rule="evenodd" d="M11.131 37.8873C11.131 37.3749 11.5464 36.9595 12.0588 36.9595H26.5557C27.0681 36.9595 27.4835 37.3749 27.4835 37.8873C27.4835 38.3997 27.0681 38.8151 26.5557 38.8151H12.0588C11.5464 38.8151 11.131 38.3997 11.131 37.8873Z" fill="#647534"/>
<path fill-rule="evenodd" clip-rule="evenodd" d="M16.3499 33.8282C16.3499 33.3158 16.7653 32.9004 17.2777 32.9004H24.8161C25.3285 32.9004 25.7439 33.3158 25.7439 33.8282C25.7439 34.3406 25.3285 34.756 24.8161 34.756H17.2777C16.7653 34.756 16.3499 34.3406 16.3499 33.8282Z" fill="#647534"/>
</svg>
